<svg id="Capa_1" enable-background="new 0 0 512.002 512.002" height="512" viewBox="0 0 512.002 512.002" width="512" xmlns="http://www.w3.org/2000/svg"><g><g><path d="m36.848 202.244c-.667 0-1.345-.09-2.019-.278-3.99-1.113-6.322-5.25-5.21-9.239 11.358-40.72 33.646-77.73 64.451-107.03 30.902-29.392 69.119-49.812 110.518-59.052 4.04-.906 8.051 1.643 8.954 5.686.902 4.042-1.644 8.051-5.687 8.954-38.744 8.648-74.516 27.764-103.447 55.282-28.844 27.434-49.71 62.08-60.34 100.191-.924 3.315-3.938 5.486-7.22 5.486z" fill="#eaf6ff"/></g><g><path d="m215.368 487.382c-.442 0-.89-.04-1.34-.121-89.457-16.133-162.199-83.395-185.321-171.359-1.053-4.006 1.341-8.107 5.348-9.16 4.006-1.052 8.106 1.341 9.16 5.347 21.643 82.345 89.737 145.309 173.475 160.411 4.076.735 6.785 4.636 6.05 8.712-.655 3.626-3.813 6.17-7.372 6.17z" fill="#eaf6ff"/></g><g><path d="m307.329 485.187c-3.414 0-6.501-2.347-7.302-5.816-.931-4.036 1.587-8.063 5.623-8.994 38.409-8.858 73.848-28.034 102.483-55.456 28.563-27.349 49.241-61.817 59.801-99.678 1.112-3.989 5.249-6.323 9.239-5.209 3.99 1.113 6.322 5.25 5.21 9.239-11.283 40.452-33.371 77.272-63.875 106.482-30.587 29.288-68.447 49.772-109.487 59.237-.567.132-1.134.195-1.692.195z" fill="#eaf6ff"/></g><g><path d="m475.156 202.245c-3.282 0-6.295-2.171-7.221-5.487-10.561-37.861-31.239-72.33-59.802-99.679-28.637-27.421-64.076-46.597-102.485-55.456-4.036-.931-6.554-4.958-5.623-8.994.932-4.036 4.96-6.554 8.994-5.623 41.041 9.465 78.901 29.949 109.488 59.238 30.505 29.209 52.593 66.031 63.877 106.483 1.112 3.99-1.22 8.126-5.21 9.239-.674.19-1.351.279-2.018.279z" fill="#eaf6ff"/></g><path d="m162.542 156.193 91.059 55.391c1.475.897 3.327.897 4.802 0l91.059-55.391c4.135-2.515 8.863 2.213 6.348 6.348l-55.392 91.059c-.897 1.475-.897 3.327 0 4.802l55.391 91.059c2.515 4.135-2.213 8.863-6.348 6.348l-91.059-55.391c-1.475-.897-3.327-.897-4.802 0l-91.059 55.391c-4.135 2.515-8.863-2.213-6.348-6.348l55.391-91.059c.897-1.475.897-3.327 0-4.802l-55.391-91.059c-2.515-4.135 2.214-8.863 6.349-6.348z" fill="#01c0fa"/><g><g><path d="m235.132 74.564c-4.143 0-7.5-3.358-7.5-7.5v-59.452c0-3.282 2.135-6.183 5.268-7.16 3.138-.976 6.54.197 8.404 2.898l27.859 40.343-.35-36.12c-.04-4.142 3.285-7.532 7.428-7.572h.074c4.108 0 7.458 3.31 7.498 7.427l.557 57.556c0 4.111-2.297 7.437-5.852 8.547-3.483 1.087-7.156-.264-9.358-3.446l-26.528-38.414v35.393c0 4.142-3.357 7.5-7.5 7.5z" fill="#fd4755"/></g></g><g><g><path d="m504.501 293.011h-24.868c-4.143 0-7.5-3.358-7.5-7.5v-59.02c0-4.142 3.357-7.5 7.5-7.5h24.868c4.143 0 7.5 3.358 7.5 7.5s-3.357 7.5-7.5 7.5h-17.368v44.02h17.368c4.143 0 7.5 3.358 7.5 7.5s-3.357 7.5-7.5 7.5z" fill="#01c0fa"/></g><g><path d="m502.667 263.501h-23.034c-4.143 0-7.5-3.358-7.5-7.5s3.357-7.5 7.5-7.5h23.034c4.143 0 7.5 3.358 7.5 7.5s-3.357 7.5-7.5 7.5z" fill="#01c0fa"/></g></g><g><g><path d="m257.418 512.001c-10.068 0-19.905-4.222-26.314-11.292-2.781-3.069-2.548-7.812.521-10.594 3.067-2.781 7.811-2.549 10.594.521 3.612 3.986 9.294 6.366 15.199 6.366 5.728 0 9.761-3.42 10.352-6.728.783-4.387-5.177-7.089-7.775-8.048-9.239-3.408-17.443-7.06-17.788-7.213-.361-.162-.709-.351-1.04-.567-6.299-4.106-9.544-11.309-8.469-18.795 1.146-7.978 6.978-14.475 15.221-16.958 16.301-4.914 29.717 6.154 30.28 6.627 3.171 2.666 3.58 7.396.915 10.567-2.655 3.158-7.358 3.577-10.528.947-.231-.186-7.98-6.296-16.341-3.779-3.793 1.143-4.55 3.687-4.699 4.728-.107.747-.161 2.536 1.433 3.822 2.099.918 8.901 3.853 16.208 6.548 15.06 5.555 18.837 16.431 17.35 24.758-1.976 11.061-12.54 19.09-25.119 19.09z" fill="#fd4755"/></g></g><path d="m300.418 258.402c-.897-1.475-.897-3.327 0-4.802l23.305-38.312-21.719-5.29-5.29-21.72-38.312 23.305c-1.475.897-3.327.897-4.802 0l-38.312-23.305-5.29 21.72-21.719 5.29 23.305 38.312c.897 1.475.897 3.327 0 4.802l-23.305 38.312 21.719 5.29 5.29 21.719 38.312-23.305c1.475-.897 3.327-.897 4.802 0l38.312 23.305 5.29-21.72 21.719-5.29z" fill="#08a9f1"/><g><g><path d="m20.372 293.283c-3.739 0-7.084-2.36-8.335-5.889-.121-.343-.218-.694-.288-1.05l-11.605-58.669c-.804-4.063 1.839-8.009 5.902-8.813 4.065-.804 8.008 1.839 8.813 5.902l6.839 34.574 10.903-35.227c1.225-3.957 5.427-6.17 9.383-4.947 3.957 1.225 6.172 5.425 4.947 9.382l-18.12 58.542c-.021.065-.042.131-.064.196-1.211 3.563-4.553 5.973-8.316 5.997-.019.002-.039.002-.059.002z" fill="#01c0fa"/></g><g><path d="m59.107 293.283c-3.737 0-7.081-2.358-8.334-5.884-.035-.1-.069-.201-.101-.303l-18.074-58.669c-1.219-3.958 1.001-8.156 4.96-9.375s8.156 1 9.376 4.959l10.882 35.322 6.859-34.469c.809-4.063 4.758-6.699 8.819-5.892 4.063.809 6.7 4.757 5.892 8.82l-11.65 58.542c-.064.324-.149.643-.256.955-1.214 3.56-4.555 5.968-8.315 5.992-.02.002-.04.002-.058.002z" fill="#01c0fa"/></g></g><path d="m260.49 102.935 28.434 116.747c.409 1.677 1.718 2.987 3.396 3.396l116.747 28.434c4.702 1.145 4.702 7.832 0 8.978l-116.747 28.434c-1.677.409-2.987 1.718-3.396 3.396l-28.434 116.746c-1.145 4.702-7.832 4.702-8.978 0l-28.434-116.747c-.409-1.677-1.718-2.987-3.396-3.396l-116.746-28.433c-4.702-1.145-4.702-7.832 0-8.978l116.747-28.434c1.677-.409 2.987-1.718 3.396-3.396l28.434-116.747c1.145-4.702 7.832-4.702 8.977 0z" fill="#fd4755"/><g fill="#fb2b3a"><path d="m409.067 251.512-116.748-28.434c-1.677-.409-2.987-1.718-3.396-3.396l-28.433-116.747c-1.145-4.702-7.832-4.702-8.978 0l-4.838 19.864 27.249 111.883c.409 1.677 1.718 2.987 3.396 3.396l111.884 27.249 19.864-4.838c4.702-1.145 4.702-7.832 0-8.977z"/><path d="m277.319 303.923c-1.677.409-2.987 1.718-3.396 3.396l-23.596 96.883 1.185 4.864c1.145 4.702 7.832 4.702 8.978 0l26.161-107.416z"/></g><g><path d="m462.229 57.273c-1.92 0-3.839-.732-5.304-2.197-2.929-2.929-2.929-7.678 0-10.606l42.272-42.272c2.931-2.929 7.679-2.929 10.607 0 2.929 2.929 2.929 7.678 0 10.606l-42.272 42.272c-1.464 1.464-3.384 2.197-5.303 2.197z" fill="#eaf6ff"/></g><g><path d="m49.774 57.273c-1.919 0-3.839-.732-5.304-2.197l-42.272-42.272c-2.929-2.929-2.929-7.678 0-10.606 2.93-2.929 7.678-2.929 10.607 0l42.273 42.272c2.929 2.929 2.929 7.678 0 10.606-1.465 1.464-3.385 2.197-5.304 2.197z" fill="#eaf6ff"/></g><g><path d="m504.501 512.001c-1.919 0-3.839-.732-5.304-2.197l-42.272-42.272c-2.929-2.929-2.929-7.678 0-10.606 2.93-2.929 7.678-2.929 10.607 0l42.272 42.272c2.929 2.929 2.929 7.678 0 10.606-1.464 1.464-3.384 2.197-5.303 2.197z" fill="#eaf6ff"/></g><g><path d="m7.501 512.001c-1.92 0-3.839-.732-5.304-2.197-2.929-2.929-2.929-7.678 0-10.606l42.272-42.272c2.931-2.929 7.679-2.929 10.607 0 2.929 2.929 2.929 7.678 0 10.606l-42.272 42.272c-1.464 1.464-3.384 2.197-5.303 2.197z" fill="#eaf6ff"/></g></g></svg>