<svg id="Capa_1" enable-background="new 0 0 510.921 510.921" height="512" viewBox="0 0 510.921 510.921" width="512" xmlns="http://www.w3.org/2000/svg"><g><g><path d="m168.028 293.656-65.119 65.119c-4.127 4.127-4.127 10.819 0 14.946l61.706 61.706c10.544 10.544 27.64 10.544 38.184 0l53.5-53.5z" fill="#fac574"/><g><path d="m461.882 278.751c56.746-56.889 56.706-149.005-.128-205.839-56.836-56.836-148.954-56.875-205.843-.126-56.888-56.749-149.007-56.71-205.843.125-56.834 56.835-56.874 148.951-.128 205.84l198.9 198.906c3.905 3.905 10.237 3.905 14.142 0z" fill="#fb4a59"/><g fill="#f82f40"><path d="m268.971 348.121-74.83 74.83-88.27-88.27 74.83-74.83c17.73-17.73 46.48-17.73 64.21 0l24.06 24.06c17.73 17.73 17.73 46.48 0 64.21z"/><path d="m461.88 278.751-198.899 198.91c-3.9 3.9-10.24 3.9-14.14 0l-19.96-19.96 194.149-194.149c56.74-56.89 56.7-149.01-.13-205.84-9.46-9.46-19.9-17.35-31-23.66 25.6 5.95 49.89 18.9 69.85 38.86 56.84 56.83 56.88 148.95.13 205.839z"/></g></g><g><g><path d="m249.827 328.978-88.358 88.358c-4.127 4.127-10.819 4.127-14.946 0l-61.706-61.706c-10.544-10.544-10.544-27.64 0-38.184l76.739-76.739c17.732-17.732 46.481-17.732 64.213 0l24.058 24.058c17.732 17.732 17.732 46.481 0 64.213z" fill="#fcddb3"/><path d="m184.784 349.183-53.206 53.206-43.433-43.433 53.206-53.206c4.127-4.127 10.819-4.127 14.946 0l28.487 28.487c4.127 4.127 4.127 10.818 0 14.946z" fill="#fdf6ed"/><path d="m249.831 328.981-21.67 21.67c17.63-17.75 17.6-46.41-.1-64.12l-24.06-24.05c-17.73-17.74-46.48-17.74-64.22 0l21.77-21.78c17.74-17.73 46.49-17.73 64.22 0l24.06 24.06c17.73 17.74 17.73 46.48 0 64.22z" fill="#fbcc85"/></g><g><path d="m504.138 187.424c-4.102-.534-7.871 2.358-8.408 6.466-3.963 30.343-17.504 57.856-39.151 79.558l-198.9 198.905c-.976.975-2.562.975-3.536 0l-68.542-68.544 69.529-69.529c20.628-20.628 20.628-54.191 0-74.819l-24.058-24.058c-9.993-9.993-23.278-15.496-37.41-15.496s-27.417 5.503-37.41 15.496l-69.527 69.527-31.475-31.476c-53.727-53.861-53.672-141.445.122-195.239 20.783-20.783 47.073-34.184 76.028-38.753 4.092-.646 6.885-4.486 6.239-8.577-.646-4.092-4.489-6.884-8.577-6.239-32.108 5.067-61.257 19.923-84.297 42.963-59.635 59.635-59.696 156.729-.128 216.446l31.723 31.724c-10.192 13.508-9.146 32.855 3.153 45.154l12.496 12.496c2.929 2.93 7.678 2.929 10.606 0 2.929-2.929 2.929-7.678 0-10.606l-3.865-3.865 47.904-47.903c.782-.782 1.694-.899 2.169-.899.474 0 1.387.117 2.169.899l28.486 28.486c1.197 1.196 1.197 3.144 0 4.34l-47.903 47.903-3.557-3.557c-2.929-2.929-7.678-2.929-10.606 0-2.929 2.929-2.929 7.678 0 10.606l41.898 41.898c6.726 6.726 15.561 10.089 24.395 10.089 7.32 0 14.636-2.316 20.757-6.933l39.073 39.074c3.412 3.412 7.893 5.118 12.375 5.118s8.963-1.706 12.375-5.118l198.906-198.913c24.006-24.066 39.017-54.57 43.412-88.215.537-4.108-2.357-7.873-6.465-8.409zm-314.051 167.062c7.044-7.045 7.044-18.508 0-25.553l-28.486-28.486c-3.413-3.413-7.95-5.292-12.776-5.292-4.827 0-9.364 1.88-12.776 5.292l-47.747 47.747c-2.513-3.351-3.892-7.393-3.892-11.656 0-5.208 2.028-10.105 5.711-13.789l76.739-76.739c7.159-7.159 16.678-11.102 26.803-11.102s19.644 3.943 26.803 11.102l24.058 24.058c14.779 14.779 14.779 38.827 0 53.606l-88.358 88.358c-.782.782-1.694.898-2.169.898-.474 0-1.387-.117-2.169-.899l-9.643-9.643zm-20.169 75.638-5.511-5.511c.832-.59 1.629-1.239 2.365-1.975l8.222-8.222 18.663 18.664c-7.481 4.443-17.31 3.472-23.739-2.956z"/><path d="m165.487 38.319c32.069 2.881 62.302 17.008 85.127 39.777 2.928 2.921 7.666 2.921 10.594 0 53.862-53.729 141.447-53.677 195.243.119 22.223 22.223 35.888 50.435 39.52 81.587.445 3.82 3.687 6.633 7.44 6.633.29 0 .583-.017.878-.051 4.114-.48 7.061-4.204 6.581-8.318-4.027-34.542-19.177-65.822-43.813-90.457-57.903-57.904-151.124-59.64-211.148-5.17-24.595-22.287-55.952-36.083-89.08-39.059-4.12-.369-7.77 2.673-8.141 6.799-.371 4.125 2.673 7.769 6.799 8.14z"/></g></g></g></g></svg>