<svg height="512" viewBox="0 0 58 58" width="512" xmlns="http://www.w3.org/2000/svg"><g id="Page-1" fill="none" fill-rule="evenodd"><g id="021---Treasure-Map" fill-rule="nonzero" transform="translate(-1 -1)"><path id="Shape" d="m58.55 27.3c.2805574-.1875613.4492865-.5025223.45-.84v-19.46c0-3.3137085-2.6862915-6-6-6s-6 2.6862915-6 6v10h-24.46c-.3374777.0007135-.6524387.1694426-.84.45l-.87 1.3c-.1826305.2809025-.4949476.4503705-.83.4503705s-.6473695-.169468-.83-.4503705l-.87-1.3c-.1875613-.2805574-.5025223-.4492865-.84-.45h-4.46v-10c-.0013269-1.72876842-.7475232-3.37312897-2.0477238-4.51247994-1.30020048-1.13935097-3.02829946-1.66318738-4.7422762-1.43752006-3.0297027.46698634-5.25226149 3.09481018-5.21 6.16v2.25c.00071348.3374777.16944259.6524387.45.84l1.3.87c.28090255.1826305.4503705.4949476.4503705.83s-.16946795.6473695-.4503705.83l-1.3.87c-.28055741.1875613-.44928652.5025223-.45.84v34.46c0 2 0 10 10 10h30v-3c0-.5522847.4477153-1 1-1s1 .4477153 1 1v3h6c10 0 10-8 10-10v-17.46c-.0007135-.3374777-.1694426-.6524387-.45-.84l-1.3-.87c-.2809025-.1826305-.4503705-.4949476-.4503705-.83s.169468-.6473695.4503705-.83z" fill="#e3bf5c"/><path id="Shape" d="m13 49c0 2.7614237-2.2385763 5-5 5h-1c-.55228475 0-1-.4477153-1-1v-9.91c.32986931-.0605936.66461242-.0907205 1-.09 3.3137085 0 6 2.6862915 6 6z" fill="#603e26"/><path id="Shape" d="m54 43.09v9.91c0 .5522847-.4477153 1-1 1h-1c-2.7614237 0-5-2.2385763-5-5 0-3.3137085 2.6862915-6 6-6 .3353876-.0007205.6701307.0294064 1 .09z" fill="#603e26"/><path id="Shape" d="m59 49c0 2 .0000005 10-10 10h-6v-3c0-.5522847-.4477153-1-1-1s-1 .4477153-1 1v3h-22.0000024c-.0031703-5.8204241 3.1567996-11.1827973 8.2500024-14 .01 0 .01-.01.02-.01 2.0702811-1.1441986 4.3691002-1.8136912 6.73-1.96l6-.03h7v6c0 2.7614237 2.2385763 5 5 5h1c.5522847 0 1-.4477153 1-1v-9.91c2.8867789.4837665 5.0011619 2.9829672 5 5.91z" fill="#a46a43"/><path id="Shape" d="m47 17v26h-7l-6 .03c-2.3608998.1463088-4.6597189.8158014-6.73 1.96-.01 0-.01.01-.02.01-5.0932028 2.8172027-8.2531727 8.1795759-8.25 14h-8c-10.00000048 0-10-8-10-10-.00116188-2.9270328 2.11322107-5.4262335 5-5.91v9.91c0 .5522847.44771525 1 1 1h1c2.7614237 0 5-2.2385763 5-5v-17.46c-.0007135-.3374777-.1694426-.6524387-.45-.84l-1.3-.87c-.2809025-.1826305-.4503705-.4949476-.4503705-.83s.169468-.6473695.4503705-.83l1.3-.87c.2805574-.1875613.4492865-.5025223.45-.84v-9.46h4.46c.3374777.0007135.6524387.1694426.84.45l.87 1.3c.1826305.2809025.4949476.4503705.83.4503705s.6473695-.169468.83-.4503705l.87-1.3c.1875613-.2805574.5025223-.4492865.84-.45h1.46v2.39c.001103 1.4410061 1.1689939 2.608897 2.61 2.61.8685589.0016076 1.6789527.4368191 2.16 1.16l.1.15c.8376212 1.2474771 2.3307912 1.8853741 3.8112185 1.6281904 1.4804272-.2571837 2.6709697-1.3613023 3.0387815-2.8181904l1.28-5.12z" fill="#b08f46"/><path id="Shape" d="m42.914 23.5.793-.793c.3789722-.3923789.3735524-1.0160848-.0121814-1.4018186s-1.0094397-.3911536-1.4018186-.0121814l-.793.793-.793-.793c-.3923789-.3789722-1.0160848-.3735524-1.4018186.0121814s-.3911536 1.0094397-.0121814 1.4018186l.793.793-.793.793c-.2599566.2510745-.3642126.6228779-.2726972.9725073.0915155.3496295.3645604.6226744.7141899.7141899.3496294.0915154.7214328-.0127406.9725073-.2726972l.793-.793.793.793c.3923789.3789722 1.0160848.3735524 1.4018186-.0121814s.3911536-1.0094397.0121814-1.4018186z" fill="#e54c3c"/><g fill="#603e26"><path id="Shape" d="m18 32h-1c-.5522847 0-1-.4477153-1-1s.4477153-1 1-1h1c.5522847 0 1 .4477153 1 1s-.4477153 1-1 1z"/><path id="Shape" d="m23 38c-.5522847 0-1-.4477153-1-1v-1c0-.5522847.4477153-1 1-1s1 .4477153 1 1v1c0 .5522847-.4477153 1-1 1z"/><path id="Shape" d="m23 43c-.5522847 0-1-.4477153-1-1v-1c0-.5522847.4477153-1 1-1s1 .4477153 1 1v1c0 .5522847-.4477153 1-1 1z"/><path id="Shape" d="m23 48c-.5522847 0-1-.4477153-1-1v-1c0-.5522847.4477153-1 1-1s1 .4477153 1 1v1c0 .5522847-.4477153 1-1 1z"/><path id="Shape" d="m43 31c-.5522847 0-1-.4477153-1-1v-1c0-.5522847.4477153-1 1-1s1 .4477153 1 1v1c0 .5522847-.4477153 1-1 1z"/><path id="Shape" d="m37 42c-.5522847 0-1-.4477153-1-1v-1c0-.5522847.4477153-1 1-1s1 .4477153 1 1v1c0 .5522847-.4477153 1-1 1z"/><path id="Shape" d="m37 47c-.5522847 0-1-.4477153-1-1v-1c0-.5522847.4477153-1 1-1s1 .4477153 1 1v1c0 .5522847-.4477153 1-1 1z"/><path id="Shape" d="m24.256 53c-.3272078.0002442-.6338372-.1596064-.821-.428-.2531154-.3616283-.4752381-.743987-.664-1.143-.2215047-.4959282-.0066513-1.077991.4839457-1.3110654.490597-.2330743 1.0775385-.0319306 1.3220543.4530654.1429295.2988703.310158.5854999.5.857.3157855.4529002.2047688 1.0760262-.248 1.392-.1677525.1178876-.3679689.1807828-.573.18z"/><path id="Shape" d="m29 55.929c-.0478445.0000918-.0956339-.0032501-.143-.01-.3869957-.0553715-.7693704-.1392666-1.144-.251-.5179926-.1665519-.807761-.7166902-.6521112-1.2380624.1556497-.5213722.6995888-.8226167 1.2241112-.6779376.2802837.0835424.5664118.1460493.856.187.5195844.0740368.8935255.5371568.8564319 1.0606771-.0370936.5235202-.4725992.9292876-.9974319.9293229z"/><path id="Shape" d="m33 55.326c-.4648567-.0031804-.8662182-.3262789-.968603-.7797315-.1023848-.4534525.1212113-.9176599.539603-1.1202685.2988703-.1429295.5854999-.310158.857-.5.2927195-.2131951.6778266-.2514795 1.0067906-.1000873.3289639.1513921.5503771.4688026.5788433.8298103s-.1404631.7091974-.4416339.910277c-.3616283.2531154-.743987.4752381-1.143.664-.1339983.0637465-.2806125.0965552-.429.096z"/><path id="Shape" d="m36.326 52c-.3423873-.0011305-.6603946-.1773541-.8428617-.4670713-.1824671-.2897173-.2040251-.6526479-.0571383-.9619287.131559-.2763131.241229-.5625252.328-.856.1604185-.525511.7147753-.8231611 1.2414375-.6665636s.8283308.7087779.6755625 1.2365636c-.1163487.3921735-.2631277.7746682-.439 1.144-.1660459.3496306-.5189448.5720426-.906.571z"/><path id="Shape" d="m37 37c-.5522847 0-1-.4477153-1-1 0-1.1045695.8954305-2 2-2 .5522847 0 1 .4477153 1 1s-.4477153 1-1 1c0 .5522847-.4477153 1-1 1z"/><path id="Shape" d="m23 33c-.5522847 0-1-.4477153-1-1-.5522847 0-1-.4477153-1-1s.4477153-1 1-1c1.1045695 0 2 .8954305 2 2 0 .5522847-.4477153 1-1 1z"/><path id="Shape" d="m42 36c-.5522847 0-1-.4477153-1-1s.4477153-1 1-1c0-.5522847.4477153-1 1-1s1 .4477153 1 1c0 1.1045695-.8954305 2-2 2z"/></g><path id="Shape" d="m37 17-1.28 5.12c-.3632392 1.4606445-1.5543536 2.56924-3.0372759 2.8268572-1.4829223.2576171-2.9781406-.3843016-3.8127241-1.6368572l-.1-.15c-.4810473-.7231809-1.2914411-1.1583924-2.16-1.16-1.4410061-.001103-2.608897-1.1689939-2.61-2.61v-2.39z" fill="#2980b9"/></g></g></svg>