<svg height="512" viewBox="0 0 58 58" width="512" xmlns="http://www.w3.org/2000/svg"><g id="Page-1" fill="none" fill-rule="evenodd"><g id="003---VS" fill-rule="nonzero"><path id="Shape" d="m5.25 50.08 7.75-9.08 4.57 3.96-7.58 8.86z" fill="#e57e25"/><path id="Shape" d="m6 36v-6l-3 1 1-4h-4l2-3-2-2 2-2-2-3h4l-1-4 3 1 2-7 8-1h5l-1-3 4 1v-4l3 2 2-2 2 2 3-2v4l4-1-1 3h5l8 2 2 6 3-1-1 4h4l-2 3 2 2-2 2 2 3h-4l1 4-3-1v7l-8 2-15-7-16 7z" fill="#e64c3c"/><path id="Rectangle-path" d="m12.641 33.702h6v17.914h-6z" fill="#f29c1f" transform="matrix(.655 -.756 .756 .655 -26.848 26.563)"/><path id="Shape" d="m49.05 12.18c-6.22 7.08-10.4 11.84-13.39 15.24-3.29 3.74-5.14 5.85-6.66 7.58-2.14 2.44-3.65 4.15-7.61 8.66l-7.56-6.54c6.29-7.17 4.87-5.56 8.51-9.7 1.33-1.52 3.34-3.81 6.66-7.6 3.3-3.77 7.91-9.02 14.44-16.46.42-.49.86-1 1.31-1.51.43-.49.87-.99 1.32-1.5.1723833-.20157624.4177863-.32641189.6822166-.34704121.2644304-.02062932.5262244.06463777.7277834.23704121l.76.66c3.3368001 2.89209269 3.6993415 7.94081736.81 11.28z" fill="#7f8c8d"/><g fill="#547580"><path id="Shape" d="m33.04 25.43c-.3929084-.0001516-.7493185-.2303764-.9110113-.588472s-.0987012-.7776951.1610113-1.072528l5.78-6.551c.3656125-.4142136.9977864-.4536125 1.412-.088s.4536125.9977864.088 1.412l-5.78 6.55c-.1899358.2150418-.4630879.3381423-.75.338z"/><path id="Rectangle-path" d="m16.301 35.529h12.081v1.999h-12.081z" transform="matrix(.662 -.749 .749 .662 -19.824 29.078)"/><path id="Shape" d="m41.442 15.857c-.3912064-.0001934-.7463762-.2284905-.9090038-.5842921s-.1028453-.7737624.1530038-1.0697079l1.963-2.268c.3611942-.4178034.9926966-.4636942 1.4105-.1025s.4636942.9926966.1025 1.4105l-1.962 2.269c-.1904816.2197473-.4671879.3456888-.758.345z"/><path id="Shape" d="m46.78 10.22c-.2303359.2826512-.5962562.417532-.9549362.3519962-.3586801-.0655358-.6532609-.3210992-.7687627-.66693974-.1155017-.34584051-.0336149-.72713441.2136989-.99505646.3631047-.52970175.5261396-1.17120855.46-1.81-.245718-1.49263518-1.0636189-2.83069239-2.28-3.73l-.01-.01c.42-.49.86-1 1.31-1.51l.01.01c1.6405147 1.22701429 2.7124069 3.06763724 2.97 5.1.1106732 1.16805531-.22917 2.33425391-.95 3.26z"/></g><rect id="Rectangle-path" fill="#f0c419" height="10" rx="2" transform="matrix(.756 .655 -.655 .756 25.609 3.521)" width="4" x="6.082" y="31.114"/><rect id="Rectangle-path" fill="#f0c419" height="10" rx="2" transform="matrix(.756 .655 -.655 .756 37.867 -3.183)" width="4" x="21.203" y="44.205"/><path id="Shape" d="m44.17 37.12-7.56 6.54-7.61-8.66-6.66-7.58-13.39-15.24c-2.88934145-3.33918264-2.52680006-8.38790731.81-11.28l.76-.66c.201559-.17240344.463353-.25767053.7277834-.23704121.2644303.02062932.5098333.14546497.6822166.34704121l1.32 1.5 1.31 1.5 14.44 16.47 6.66 7.6z" fill="#95a5a5"/><path id="Shape" d="m39.639 42.046c-.2869121.0001423-.5600642-.1229582-.75-.338l-20.463-23.165c-.2365098-.2679492-.3121047-.6417209-.1983088-.9805191.1137959-.3387981.3996943-.591151.75-.662.3503057-.0708489.711799.0505699.9483088.3185191l20.462 23.165c.2602512.2946514.3237152.7144529.1621918 1.0728665-.1615233.3584137-.5180632.5889355-.9111918.5891335z" fill="#7f8c8d"/><path id="Shape" d="m16.558 15.857c-.2904631.000398-.5667467-.1255172-.757-.345l-1.963-2.269c-.3611942-.4178034-.3153034-1.0493058.1025-1.4105s1.0493058-.3153034 1.4105.1025l1.963 2.265c.2558491.2959455.3156314.7139063.1530038 1.0697079s-.5177974.5840987-.9090038.5842921z" fill="#7f8c8d"/><path id="Shape" d="m14.56 3.35c0 .01 0 .01-.01.02-1.2163811.89930761-2.034282 2.23736482-2.28 3.73-.0661396.63879145.0968953 1.28029825.46 1.81.3413074.41882722.2882217 1.03302282-.1198867 1.3870772-.4081084.3540543-1.0236484.3199246-1.3901133-.0770772-.72083-.92574609-1.0606732-2.09194469-.95-3.26.2575931-2.03236276 1.3294853-3.87298571 2.97-5.1l.01-.01z" fill="#7f8c8d"/><path id="Shape" d="m48.01 53.82-7.58-8.82 4.57-3.96 7.73 9.03.01.01z" fill="#e57e25"/><circle id="Oval" cx="6" cy="54" fill="#f0c419" r="4"/><circle id="Oval" cx="52" cy="54" fill="#f0c419" r="4"/><path id="Rectangle-path" d="m33.4 39.659h17.914v6h-17.914z" fill="#f29c1f" transform="matrix(.756 -.655 .655 .756 -17.588 38.131)"/><rect id="Rectangle-path" fill="#f0c419" height="10" rx="2" transform="matrix(-.756 .655 -.655 -.756 111.295 30.744)" width="4" x="47.918" y="31.114"/><rect id="Rectangle-path" fill="#f0c419" height="10" rx="2" transform="matrix(-.756 .655 -.655 -.756 93.311 63.629)" width="4" x="32.798" y="44.204"/></g></g></svg>