<svg height="512pt" viewBox="0 -36 512 512" width="512pt" xmlns="http://www.w3.org/2000/svg"><path d="m494.5 128.699219h-54.492188c-17.292968-12.425781-34.414062-22.9375-45.886718-29.648438-1.199219-.703125-1.285156-1.792969-1.230469-2.386719s.347656-1.664062 1.671875-2.140624c12.765625-4.566407 25.003906-10.628907 36.371094-18.015626 5.703125-3.707031 8.703125-10.199218 7.828125-16.941406-.871094-6.726562-5.417969-12.230468-11.867188-14.355468-41.214843-13.59375-143.898437-45.210938-207.089843-45.210938-53.339844 0-104.777344 19.34375-144.839844 54.46875-3.117188 2.730469-3.425782 7.46875-.695313 10.582031s7.46875 3.425781 10.582031.695313c37.328126-32.726563 85.253907-50.746094 134.953126-50.746094 61.019531 0 161.867187 31.085938 202.390624 44.453125 1.296876.429687 1.617188 1.460937 1.691407 2.042969.078125.582031.03125 1.679687-1.125 2.433594-10.394531 6.753906-21.582031 12.292968-33.25 16.472656-6.492188 2.320312-10.917969 8.019531-11.554688 14.875-.636719 6.839844 2.65625 13.246094 8.59375 16.71875 7.1875 4.207031 16.648438 9.9375 26.953125 16.703125h-84.945312c-.003906 0-.003906 0-.007813 0-14.6875 0-27.800781-9.316407-32.636719-23.179688-6.929687-19.882812-25.738281-33.242187-46.792968-33.242187h-46.792969c-11.488281 0-21.191406 7.757812-24.164063 18.308594h-42.546874c-21.847657 0-39.625 17.773437-39.625 39.625v1.1875c0 10.304687 3.957031 19.699218 10.425781 26.753906-15.589844 5.332031-26.835938 20.117187-26.835938 37.492187v1.191407c0 13.207031 6.503907 24.917968 16.46875 32.125-9.964843 7.203124-16.46875 18.914062-16.46875 32.121093v1.191407c0 17.371093 11.246094 32.160156 26.835938 37.492187-6.46875 7.054687-10.425781 16.449219-10.425781 26.753906v1.191407c0 21.847656 17.777343 39.621093 39.625 39.621093h66.691406c12.164062 0 23.078125-5.4375 30.460937-14h3.628907c39.050781 0 66.953124-16.34375 83.484374-30.054687 12.742188-10.566406 20.8125-21.148438 24.539063-26.597656h89.667969c-17.210938 12.574218-34.605469 23.367187-47.539063 30.933593-5.9375 3.472657-9.230469 9.878907-8.59375 16.71875.636719 6.855469 5.0625 12.554688 11.550781 14.875 11.671876 4.175781 22.859376 9.71875 33.25 16.472657 1.160157.753906 1.207032 1.847656 1.128907 2.433593-.074219.578125-.394531 1.613281-1.691407 2.042969-40.523437 13.367188-141.375 44.453125-202.390624 44.453125-112.929688 0-204.804688-91.875-204.804688-204.804687 0-49.765626 18.0625-97.738282 50.863281-135.085938 2.734375-3.113281 2.425781-7.851562-.683593-10.585938-3.113282-2.734374-7.855469-2.425781-10.585938.6875-35.203125 40.085938-54.59375 91.574219-54.59375 144.984376 0 58.710937 22.863281 113.910156 64.378906 155.425781 41.515625 41.511719 96.714844 64.378906 155.425782 64.378906 63.191406 0 165.875-31.617187 207.089843-45.210937 6.445313-2.125 10.996094-7.628907 11.867188-14.359376.875-6.738281-2.125-13.230468-7.828125-16.9375-11.367188-7.386718-23.605469-13.449218-36.371094-18.019531-1.328125-.472656-1.617188-1.542969-1.671875-2.140625-.054687-.589844.03125-1.683594 1.230469-2.382812 17.234375-10.082032 42.1875-25.761719 64.578125-43.878906h35.800781c9.648438 0 17.5-7.851563 17.5-17.5v-132.980469c0-9.648438-7.851562-17.5-17.5-17.5zm-383.507812 1.507812c0-13.578125 11.042968-24.621093 24.621093-24.621093h41.609375v50.433593h-41.609375c-13.578125 0-24.621093-11.042969-24.621093-24.621093zm-16.414063 132.0625v-1.1875c0-13.578125 11.046875-24.625 24.625-24.625h10.902344c4.140625 0 7.5-3.355469 7.5-7.5 0-4.140625-3.359375-7.5-7.5-7.5h-10.902344c-13.578125 0-24.625-11.046875-24.625-24.621093v-1.191407c0-13.578125 11.046875-24.625 24.625-24.625h58.019531v15.386719c0 8.933594 4.59375 16.980469 12.289063 21.515625 5.183593 3.058594 11.078125 4.105469 16.761719 3.148437-4.589844 6.289063-12.011719 10.386719-20.378907 10.386719h-27.789062c-4.140625 0-7.5 3.359375-7.5 7.5s3.359375 7.5 7.5 7.5h27.789062c13.90625 0 25.21875 11.3125 25.21875 25.21875 0 13.902344-11.3125 25.21875-25.21875 25.21875h-50.28125c-.25 0-.492187.011719-.742187.015625-.125-.003906-.246094-.015625-.371094-.015625h-15.296875c-13.578125 0-24.625-11.046875-24.625-24.625zm107.730469 90.0625h-66.695313c-13.578125 0-24.621093-11.046875-24.621093-24.625v-1.191406c0-13.578125 11.042968-24.621094 24.621093-24.621094h66.695313c13.902344 0 25.214844 11.3125 25.214844 25.214844 0 13.910156-11.3125 25.222656-25.214844 25.222656zm294.691406-73.152343c0 1.378906-1.121094 2.5-2.5 2.5h-38.433594c-.007812 0-.015625 0-.023437 0h-115.710938c-2.679687 0-5.15625 1.429687-6.496093 3.753906-.296876.515625-29.851563 50.480468-92.890626 52.804687 1.023438-3.535156 1.578126-7.265625 1.578126-11.125 0-17.625-11.402344-32.628906-27.214844-38.050781 6.699218-7.183594 10.804687-16.8125 10.804687-27.386719 0-13.476562-6.667969-25.417969-16.875-32.71875 9.222657-6.597656 15.550781-16.980469 16.6875-28.867187 3.394531-2.972656 6.46875-6.265625 9.167969-9.828125 5.015625 19.128906 22.453125 33.285156 43.132812 33.285156 4.144532 0 7.5-3.359375 7.5-7.5 0-4.144531-3.355468-7.5-7.5-7.5-16.3125 0-29.582031-13.273437-29.582031-29.582031v-48.046875c0-4.144531-3.359375-7.5-7.5-7.5s-7.5 3.355469-7.5 7.5v19.09375c0 15.460937-6.929687 29.917969-18.554687 39.609375-.792969.421875-1.496094.988281-2.089844 1.65625-1.882812 1.414062-3.875 2.707031-5.96875 3.863281-3.171875 1.753906-6.777344 1.703125-9.898438-.136719-3.121093-1.839844-4.910156-4.972656-4.910156-8.597656v-89.023438c0-5.574218 4.53125-10.105468 10.101563-10.105468h46.792969c14.683593 0 27.796874 9.316406 32.632812 23.179687 6.59375 18.90625 23.921875 31.90625 43.710938 33.136719.394531.066406.792968.105469 1.207031.105469h167.832031c1.378906 0 2.5 1.125 2.5 2.5zm0 0"/></svg>