<?xml version="1.0" encoding="iso-8859-1"?>
<!-- Generator: Adobe Illustrator 19.0.0, SVG Export Plug-In . SVG Version: 6.00 Build 0)  -->
<svg version="1.1" id="Capa_1" xmlns="http://www.w3.org/2000/svg" xmlns:xlink="http://www.w3.org/1999/xlink" x="0px" y="0px"
	 viewBox="0 0 512 512" style="enable-background:new 0 0 512 512;" xml:space="preserve">
<g>
	<g>
		<path d="M216.629,85.805c-12.645-16.741-30.582-25.565-51.874-25.895C123.022,59.248,87.096,75.395,63.7,105.7
			c-22.018,28.52-42.63,82.758-15.794,179.177c6.367,22.876,12.984,41.309,14.523,49.469c1.252,6.639,7.052,11.447,13.808,11.447
			h121.545c6.757,0,12.557-4.809,13.808-11.448c1.149-6.088,7.551-23.847,13.572-46.328
			C239.18,235.669,253.156,134.173,216.629,85.805z M198.015,280.948c-4.376,16.345-8.64,29.365-11.002,37.142H87.14
			c-4.501-15.389-7.632-24.28-12.16-40.549C56.209,210.096,60,156.682,85.946,123.073c17.847-23.119,45.666-35.559,78.374-35.063
			c12.844,0.199,22.339,4.944,29.882,14.932C221.844,139.544,211.811,229.43,198.015,280.948z"/>
	</g>
</g>
<g>
	<g>
		<path d="M196.272,376.96H76.237c-8.286,0-14.804,6.718-14.804,15.004v45.013c0,41.367,33.455,75.022,74.822,75.022
			s75.022-33.655,75.022-75.022v-45.013C211.277,383.678,204.559,376.96,196.272,376.96z M181.468,436.978
			c0,24.82-20.393,45.013-45.213,45.013s-45.013-20.193-45.013-45.013v-30.009h90.227V436.978z"/>
	</g>
</g>
<g>
	<g>
		<path d="M447.618,50.371c-23.78-31.487-61.252-49.716-102.81-50.361c-21.317-0.344-39.107,7.821-51.559,23.952
			c-35.415,45.877-20.76,145.962-5.273,201.615c6.363,22.862,12.986,41.321,14.523,49.469c1.252,6.639,7.052,11.647,13.808,11.647
			h121.545c6.757,0,12.557-5.008,13.808-11.648c1.15-6.093,7.552-23.851,13.572-46.327
			C490.562,134.132,469.634,79.525,447.618,50.371z M438.086,221.449c-4.914,18.355-10.697,35.54-11.001,36.542h-99.874
			c-1.374-4.698-7.128-21.867-12.16-39.948c-17.926-64.405-23.529-145.852,0.443-176.906c7.116-9.219,16.291-13.411,28.878-13.227
			c32.837,0.509,62.294,14.869,80.818,39.398C451.354,101.952,455.814,155.253,438.086,221.449z"/>
	</g>
</g>
<g>
	<g>
		<path d="M436.344,318.062H316.308c-8.286,0-14.804,6.118-14.804,14.404v45.013c0,41.367,33.455,75.022,74.822,75.022
			c41.367,0,75.022-33.655,75.022-75.022v-45.013C451.348,324.18,444.63,318.062,436.344,318.062z M421.539,377.479
			c0,24.82-20.393,45.013-45.213,45.013c-24.82,0-45.013-20.193-45.013-45.013v-29.609h90.227V377.479z"/>
	</g>
</g>
<g>
</g>
<g>
</g>
<g>
</g>
<g>
</g>
<g>
</g>
<g>
</g>
<g>
</g>
<g>
</g>
<g>
</g>
<g>
</g>
<g>
</g>
<g>
</g>
<g>
</g>
<g>
</g>
<g>
</g>
</svg>
