<?xml version="1.0" encoding="iso-8859-1"?>
<!-- Generator: Adobe Illustrator 19.0.0, SVG Export Plug-In . SVG Version: 6.00 Build 0)  -->
<svg version="1.1" id="Capa_1" xmlns="http://www.w3.org/2000/svg" xmlns:xlink="http://www.w3.org/1999/xlink" x="0px" y="0px"
	 viewBox="0 0 512.001 512.001" style="enable-background:new 0 0 512.001 512.001;" xml:space="preserve">
<g>
	<g>
		<path d="M328.297,368.568L282.278,331.6V175.671c0-4.146-3.36-7.507-7.507-7.507s-7.507,3.361-7.507,7.507V335.2v128.988h-22.527
			V335.2V72.568h22.527v56.808c0,4.146,3.36,7.507,7.507,7.507s7.507-3.361,7.507-7.507V72.568h16.63c0.75,0,1.499-0.155,2.17-0.488
			c4.853-2.407,5.755-7.869,3.11-11.465L261.877,3.061C260.463,1.136,258.218,0,255.829,0s-4.634,1.136-6.048,3.061L207.47,60.614
			c-2.645,3.598-1.743,9.058,3.112,11.466c0.672,0.333,1.42,0.488,2.17,0.488h16.971v259.034l-46.018,36.966
			c-2.982,2.396-4.693,5.964-4.693,9.789v41.49c0,4.146,3.361,7.507,7.507,7.507c4.146,0,7.507-3.361,7.507-7.507v-40.313
			l35.696-28.674v117.893l-35.696,25.864v-29.076c0-4.146-3.361-7.507-7.507-7.507c-4.146,0-7.507,3.361-7.507,7.507v33.894
			c0,4.743,2.625,9.028,6.848,11.183c1.813,0.925,3.77,1.381,5.716,1.381c2.592,0,5.166-0.809,7.358-2.397l41.956-30.399h30.221
			l41.955,30.4c2.193,1.589,4.768,2.397,7.359,2.397c1.947,0,3.904-0.456,5.717-1.381c4.224-2.156,6.848-6.441,6.848-11.183v-121.08
			C332.988,374.532,331.279,370.965,328.297,368.568z M237.229,57.553h-8.874l27.474-37.371l27.475,37.371h-8.533H237.229z
			 M317.974,494.617l-35.695-25.864V350.86l35.695,28.674V494.617z"/>
	</g>
</g>
<g>
</g>
<g>
</g>
<g>
</g>
<g>
</g>
<g>
</g>
<g>
</g>
<g>
</g>
<g>
</g>
<g>
</g>
<g>
</g>
<g>
</g>
<g>
</g>
<g>
</g>
<g>
</g>
<g>
</g>
</svg>
