<svg id="Capa_1" enable-background="new 0 0 512 512" height="512" viewBox="0 0 512 512" width="512" xmlns="http://www.w3.org/2000/svg"><g><g><path d="m256 0c-73.479 0-139.788 43.407-168.93 110.586-1.648 3.8.096 8.217 3.896 9.865 3.799 1.65 8.217-.096 9.865-3.896 26.762-61.693 87.669-101.555 155.169-101.555 93.242 0 169.1 75.857 169.1 169.1 0 23.071-4.561 45.421-13.554 66.429-1.631 3.809.135 8.217 3.942 9.847.963.412 1.964.607 2.948.607 2.911 0 5.681-1.705 6.898-4.55 9.797-22.885 14.765-47.221 14.765-72.333.001-101.513-82.586-184.1-184.099-184.1z"/><path d="m405.822 277.911c-3.413-2.348-8.081-1.485-10.431 1.927-13.494 19.607-30.601 35.87-50.847 48.338-14.086 8.684-23.456 23.23-25.707 39.906l-2.139 15.779h-121.396l-2.139-15.788c-2.252-16.622-11.772-31.255-26.122-40.148-24.083-14.927-44.205-35.833-58.189-60.458-14.416-25.386-22.007-54.333-21.951-83.709.027-11.935 1.284-23.819 3.735-35.325.862-4.052-1.723-8.035-5.773-8.898-4.044-.856-8.035 1.722-8.898 5.773-2.666 12.52-4.033 25.444-4.063 38.419-.061 31.98 8.207 63.499 23.908 91.147 15.22 26.801 37.119 49.555 63.33 65.801 10.528 6.524 17.512 17.245 19.16 29.412l1.967 14.514c-7.265 2.168-12.579 8.903-12.579 16.863v12.121c0 7.212 4.365 13.418 10.588 16.134-.306 1.297-.484 2.642-.484 4.031v12.12c0 9.704 7.896 17.6 17.6 17.6h2.028l5.808 26.713c2.747 12.641 14.133 21.817 27.069 21.817h51.406c12.937 0 24.322-9.176 27.071-21.817l5.808-26.713h2.028c9.704 0 17.6-7.896 17.6-17.6v-12.12c0-1.389-.178-2.734-.484-4.031 6.223-2.716 10.588-8.922 10.588-16.134v-12.121c0-7.96-5.314-14.694-12.579-16.863l1.967-14.509c1.648-12.208 8.469-22.833 18.711-29.146 22.032-13.567 40.649-31.266 55.336-52.604 2.348-3.412 1.486-8.082-1.927-10.431zm-79.111 138.276h-141.422c-1.436 0-2.603-1.167-2.603-2.602v-12.121c0-1.435 1.167-2.603 2.603-2.603h141.422c1.436 0 2.603 1.168 2.603 2.603v12.121c0 1.435-1.167 2.602-2.603 2.602zm-7.501 29.683c0 1.434-1.166 2.6-2.6 2.6h-59.16c-4.143 0-7.5 3.357-7.5 7.5s3.357 7.5 7.5 7.5h41.781l-5.115 23.525c-1.26 5.797-6.48 10.005-12.413 10.005h-51.406c-5.933 0-11.153-4.208-12.413-10.005l-5.115-23.525h9.681c4.143 0 7.5-3.357 7.5-7.5s-3.357-7.5-7.5-7.5h-27.06c-1.434 0-2.6-1.166-2.6-2.6v-12.12c0-1.311.979-2.387 2.242-2.563h121.935c1.263.176 2.242 1.252 2.242 2.563v12.12z"/><path d="m255.884 280.911c-14.258 0-25.857 11.6-25.857 25.857s11.6 25.857 25.857 25.857c14.258 0 25.857-11.6 25.857-25.857s-11.599-25.857-25.857-25.857zm0 36.715c-5.986 0-10.857-4.871-10.857-10.857s4.871-10.857 10.857-10.857 10.857 4.871 10.857 10.857-4.871 10.857-10.857 10.857z"/><path d="m281.741 219.662c12.833-4.263 24.396-11.584 33.705-21.389 15.663-16.499 23.64-38.117 22.459-60.873-2.219-42.754-37.508-76.921-80.338-77.783-.569-.012-1.134-.018-1.7-.018-40.857 0-75.662 30.121-81.325 70.704-.526 3.761-.793 7.606-.793 11.431 0 14.258 11.6 25.857 25.857 25.857s25.857-11.6 25.857-25.857c0-1.438.1-2.875.296-4.276 2.126-15.24 15.348-26.479 30.764-26.137 15.854.32 28.916 12.952 29.735 28.759.439 8.452-2.515 16.473-8.317 22.586-5.808 6.117-13.641 9.486-22.058 9.486-14.258 0-25.857 11.6-25.857 25.857v35.329c0 14.258 11.6 25.857 25.857 25.857 14.258 0 25.857-11.6 25.857-25.857v-13.676zm-9.355-12.878c-3.321.848-5.645 3.839-5.645 7.267v19.288c0 5.986-4.871 10.857-10.857 10.857s-10.857-4.871-10.857-10.857v-35.329c0-5.987 4.871-10.857 10.857-10.857 12.571 0 24.269-5.028 32.937-14.159 8.663-9.125 13.073-21.09 12.419-33.69-1.226-23.622-20.733-42.501-44.398-42.978-.342-.008-.678-.012-1.018-.012-22.572 0-41.789 16.633-44.918 39.064-.293 2.083-.441 4.222-.441 6.356 0 5.987-4.87 10.857-10.857 10.857-5.986 0-10.857-4.87-10.857-10.857 0-3.131.218-6.277.648-9.354 4.629-33.168 33.073-57.78 66.476-57.78.461 0 .927.005 1.39.014 35.007.706 63.85 28.626 65.662 63.564.966 18.607-5.554 36.281-18.356 49.768-8.711 9.171-19.839 15.685-32.185 18.838z"/></g></g></svg>