<svg fill="#fff" height="512pt" viewBox="-47 0 512 512" width="512pt" xmlns="http://www.w3.org/2000/svg"><path d="m355.527344 52.636719c-39.328125-33.945313-91.542969-52.636719-147.027344-52.636719s-107.699219 18.691406-147.027344 52.636719c-39.640625 34.214843-61.472656 79.796875-61.472656 128.351562 0 54.246094 27.660156 105.160157 75.886719 139.691407 3.367187 2.410156 8.050781 1.632812 10.464843-1.734376 2.410157-3.367187 1.636719-8.050781-1.734374-10.460937-44.242188-31.679687-69.617188-78.148437-69.617188-127.496094 0-91.523437 86.804688-165.988281 193.5-165.988281s193.5 74.464844 193.5 165.988281c0 78.992188-66.484375 147.734375-156.007812 162.871094-.09375-5.640625-1.476563-11.25-4.007813-16.261719-1.871094-3.695312-6.382813-5.179687-10.078125-3.308594-3.695312 1.867188-5.179688 6.378907-3.308594 10.074219 1.59375 3.15625 2.402344 6.566407 2.402344 10.136719v22h-45c0-7.53125 0-13.566406 0-22 0-12.40625 10.09375-22.5 22.5-22.5.179688 0 .355469.003906.53125.007812 4.097656.097657 7.570312-3.199218 7.65625-7.339843.089844-4.140625-3.195312-7.570313-7.335938-7.65625-.285156-.007813-.566406-.011719-.851562-.011719-20.464844 0-37.152344 16.480469-37.496094 36.863281-21.148437-3.554687-41.296875-10.09375-60.007812-19.480469-3.699219-1.859374-8.207032-.363281-10.066406 3.339844-1.859376 3.703125-.363282 8.207032 3.339843 10.066406 20.78125 10.425782 43.203125 17.570313 66.730469 21.269532v115.441406c0 20.679688 16.820312 37.5 37.5 37.5 20.675781 0 37.5-16.820312 37.5-37.5v-42.667969c0-4.140625-3.359375-7.5-7.5-7.5-4.144531 0-7.5 3.359375-7.5 7.5v4.667969h-45v-55h45v18.417969c0 4.140625 3.355469 7.5 7.5 7.5 4.140625 0 7.5-3.359375 7.5-7.5v-40.859375c46.199219-7.292969 88.453125-28.105469 119.574219-59.019532 33.160156-32.941406 51.425781-75.222656 51.425781-119.050781 0-48.554687-21.832031-94.136719-61.472656-128.351562zm-124.527344 398.863281v23c0 12.40625-10.09375 22.5-22.5 22.5s-22.5-10.09375-22.5-22.5v-23zm0 0"/></svg>