<svg fill="#fff" height="512pt" viewBox="0 -86 512 512" width="512pt" xmlns="http://www.w3.org/2000/svg"><path d="m432.351562 29.660156c-47.082031-19.125-109.355468-29.660156-175.351562-29.660156-66.101562 0-128.710938 10.523438-176.296875 29.636719-52.039063 20.902343-80.69921875 50.328125-80.703125 82.859375v.003906 90c0 19.546875 10.382812 48.167969 59.835938 73.539062 33.242187 17.054688 79.140624 29.519532 129.691406 35.269532 8.183594 11.3125 21.476562 18.691406 36.472656 18.691406h61c13.296875 0 25.261719-5.800781 33.503906-15h20.449219c28.136719 0 56.351563 6.566406 81.59375 18.984375 41.535156 20.433594 89.453125-8.386719 89.453125-53.996094 0-14.449219-5.140625-28.238281-14.105469-39.121093 9.273438-12.058594 14.105469-25.109376 14.105469-38.367188v-90-.003906c-.003906-32.550782-28.289062-61.972656-79.648438-82.835938zm-251.351562 195.339844v55c-42.226562-5.816406-79.929688-16.527344-107.472656-30.65625-28.066406-14.398438-43.527344-31.035156-43.527344-46.84375v-35.597656c38.183594 31.328125 102.496094 47.078125 151.246094 53.398437-.160156 1.542969-.246094 3.109375-.246094 4.699219zm121 60c0 8.269531-6.730469 15-15 15h-61c-8.269531 0-15-6.730469-15-15v-15h46c8.285156 0 15-6.714844 15-15s-6.714844-15-15-15h-46v-15c0-8.269531 6.730469-15 15-15h61c8.269531 0 15 6.730469 15 15zm15.34375-93.199219c-8.007812-7.324219-18.660156-11.800781-30.34375-11.800781h-61c-11.683594 0-22.335938 4.476562-30.34375 11.800781-39.382812-4.265625-75.539062-12.742187-104.195312-24.3125-1.277344-2.4375-1.460938-3.96875-1.460938-4.632812 0-3.59375 7.769531-15.378907 43.246094-26.609375 33.097656-10.476563 77.046875-16.246094 123.753906-16.246094 46.5625 0 90.136719 5.761719 122.6875 16.226562 31.042969 9.976563 42.3125 21.390626 42.3125 26.628907 0 .695312-.199219 2.332031-1.636719 4.964843-28.378906 11.421876-64.0625 19.757813-103.019531 23.980469zm118.445312 115.265625c-29.339843-14.4375-62.136718-22.066406-94.835937-22.066406h-8.953125v-60h30c36.367188 0 72.296875 9.511719 103.898438 27.503906 9.929687 5.652344 16.101562 16.183594 16.101562 27.484375 0 23.71875-24.886719 37.566407-46.210938 27.078125zm46.210938-104.566406c0 6.671875-2.691406 13.453125-7.988281 20.242188-18.238281-9.621094-37.628907-16.828126-57.628907-21.484376 22.765626-7.769531 47.050782-18.859374 65.617188-34.125zm-31.5-49.691406c-4.394531-14.488282-19.699219-31.664063-61.632812-45.144532-35.4375-11.390624-82.269532-17.664062-131.867188-17.664062-49.695312 0-96.863281 6.265625-132.808594 17.644531-42.445312 13.4375-58.058594 30.523438-62.605468 44.96875-20.476563-12.722656-31.585938-26.714843-31.585938-40.113281 0-18.890625 23.136719-39.460938 61.886719-55.023438 44.113281-17.71875 102.753906-27.476562 165.113281-27.476562 132.597656 0 225 43.480469 225 82.5 0 13.535156-11.070312 27.574219-31.5 40.308594zm0 0"/></svg>