<svg fill="#fff" id="line_icons" height="512" viewBox="0 0 74 74" width="512" xmlns="http://www.w3.org/2000/svg" data-name="line icons"><path d="m58.686 36.889a1 1 0 0 1 -.729-.316l-3.228-3.44-3.676-.319-2.2 2.057a1 1 0 0 1 -1.411-.048l-8.465-9.023a1 1 0 0 1 .045-1.414l3.678-3.439a6.519 6.519 0 0 0 -.266-6.1c-1.814-2.96-6.318-5.047-11.761-5.447a1 1 0 0 1 -.555-1.775c6.292-5.078 18.529-4.5 26.716 4.454 5.348 5.7 6.795 10.377 7.231 15.586l1.59 1.694a1 1 0 0 1 -.045 1.414l-6.24 5.85a1 1 0 0 1 -.684.266zm-7.99-6.11h.086l4.5.39a1 1 0 0 1 .643.312l2.806 2.991 4.781-4.482-1.145-1.221a.992.992 0 0 1 -.268-.609c-.38-5.07-1.639-9.3-6.732-14.73-5.279-5.77-14.917-9.04-21.767-5.673 4.822.889 8.731 3.1 10.534 6.053a8.584 8.584 0 0 1 .321 8.11 1.018 1.018 0 0 1 -.237.339l-3.1 2.906 7.093 7.563 1.8-1.68a1 1 0 0 1 .689-.269z"/><path d="m33.4 46.78a1 1 0 0 1 -.745-1.665l11.911-13.353-2.712-2.893-14.09 11.031a1 1 0 1 1 -1.232-1.575l14.81-11.595a1 1 0 0 1 1.346.1l3.963 4.227a1 1 0 0 1 .016 1.349l-12.517 14.04a1 1 0 0 1 -.75.334z"/><path d="m10.926 69.564h-.126a3.781 3.781 0 0 1 -2.655-1.2l-5.153-5.5a3.813 3.813 0 0 1 .173-5.382l19.881-18.642a3.809 3.809 0 0 1 5.383.173l5.153 5.5a3.808 3.808 0 0 1 -.173 5.382l-19.882 18.639a3.78 3.78 0 0 1 -2.601 1.03zm-1.326-2.571a1.794 1.794 0 0 0 1.261.57 1.821 1.821 0 0 0 1.294-.488l19.886-18.644a1.808 1.808 0 0 0 .082-2.555l-5.153-5.495a1.794 1.794 0 0 0 -1.261-.57 1.772 1.772 0 0 0 -1.294.488l-19.882 18.644a1.81 1.81 0 0 0 -.082 2.557z"/><path d="m59.757 43.08a2.633 2.633 0 0 1 -1.926-.833l-1.647-1.756a2.639 2.639 0 0 1 .12-3.731l9.642-9.042a2.639 2.639 0 0 1 3.731.12l1.647 1.756a2.639 2.639 0 0 1 -.12 3.731l-9.642 9.042a2.632 2.632 0 0 1 -1.805.713zm7.994-14.08a.636.636 0 0 0 -.437.173l-9.642 9.042a.639.639 0 0 0 -.029.9l1.647 1.756a.64.64 0 0 0 .9.029l9.642-9.042a.639.639 0 0 0 .029-.9l-1.647-1.756a.636.636 0 0 0 -.446-.2z"/></svg>