<svg fill="#fff" id="Capa_1" enable-background="new 0 0 512 512" height="512" viewBox="0 0 512 512" width="512" xmlns="http://www.w3.org/2000/svg"><g id="XMLID_1437_"><g id="XMLID_865_"><path id="XMLID_875_" d="m264.805 145.945c-14.49-14.49-38.069-14.49-52.56 0l-8.245 8.245v-93.19c0-18.196-14.804-33-33-33-4.648 0-9.073.971-13.088 2.713-1.18-17.132-15.485-30.713-32.912-30.713s-31.732 13.581-32.912 30.713c-4.015-1.742-8.44-2.713-13.088-2.713-18.196 0-33 14.804-33 33v5.506c-3.992-1.718-8.386-2.673-13-2.673-18.196 0-33 14.804-33 33v195.5c0 7.57 2.489 14.568 6.688 20.225-4.12 4-6.688 9.592-6.688 15.775v29c0 12.131 9.869 22 22 22h173c12.131 0 22-9.869 22-22v-29c0-5.606-2.11-10.725-5.575-14.615 3.505-4.908 5.575-10.908 5.575-17.385v-28.838l51.933-73.899c10.408-14.811 8.672-34.85-4.128-47.651zm-244.805 72.888h94.25c13.096 0 23.75 10.654 23.75 23.75s-10.654 23.75-23.75 23.75h-94.25zm177 138.5c0 1.103-.897 2-2 2h-173c-1.103 0-2-.897-2-2v-29c0-1.103.897-2 2-2h173c1.103 0 2 .897 2 2zm55.57-175.237-53.751 76.487c-1.184 1.684-1.818 3.692-1.818 5.75v32c0 5.514-4.486 10-10 10h-153.001c-7.72 0-14-6.28-14-14v-6h94.25c24.124 0 43.75-19.626 43.75-43.75s-19.626-43.75-43.75-43.75h-94.25v-102c0-7.168 5.832-13 13-13s13 5.832 13 13v72c0 5.522 4.477 10 10 10s10-4.478 10-10v-107.833c0-7.168 5.832-13 13-13s13 5.832 13 13v107.833c0 5.522 4.477 10 10 10s10-4.478 10-10v-135.833c0-7.168 5.832-13 13-13s13 5.832 13 13v135.833c0 5.522 4.477 10 10 10s10-4.478 10-10v-107.833c0-7.168 5.832-13 13-13s13 5.832 13 13v117.333c0 4.045 2.437 7.691 6.173 9.239 3.736 1.545 8.038.692 10.898-2.168l25.316-25.316c6.694-6.692 17.584-6.691 24.276 0 5.912 5.912 6.714 15.168 1.907 22.008z"/><path id="XMLID_1569_" d="m479 196.5c-4.614 0-9.008.955-13 2.673v-5.506c0-18.196-14.804-33-33-33-4.648 0-9.073.971-13.088 2.713-1.18-17.132-15.485-30.713-32.912-30.713s-31.732 13.581-32.912 30.713c-4.015-1.742-8.44-2.713-13.088-2.713-18.196 0-33 14.804-33 33v93.19l-8.246-8.245c-14.49-14.489-38.068-14.49-52.56 0-12.799 12.801-14.535 32.84-4.127 47.65l51.933 73.9v28.838c0 6.477 2.07 12.477 5.575 17.385-3.465 3.89-5.575 9.01-5.575 14.615v29c0 12.131 9.869 22 22 22h173c12.131 0 22-9.869 22-22v-29c0-6.183-2.568-11.775-6.688-15.775 4.199-5.657 6.688-12.655 6.688-20.225v-195.5c0-18.196-14.804-33-33-33zm13 202.5h-94.25c-13.096 0-23.75-10.654-23.75-23.75s10.654-23.75 23.75-23.75h94.25zm0 91c0 1.103-.897 2-2 2h-173c-1.103 0-2-.897-2-2v-29c0-1.103.897-2 2-2h41.5c5.523 0 10-4.478 10-10s-4.477-10-10-10h-33.5c-5.514 0-10-4.486-10-10v-32c0-2.058-.635-4.065-1.818-5.75l-53.751-76.487c-4.807-6.84-4.005-16.096 1.906-22.008 6.693-6.692 17.583-6.692 24.276 0l25.316 25.316c2.859 2.859 7.16 3.713 10.898 2.168 3.737-1.548 6.173-5.194 6.173-9.239v-117.333c0-7.168 5.832-13 13-13s13 5.832 13 13v107.833c0 5.522 4.477 10 10 10s10-4.478 10-10v-135.833c0-7.168 5.832-13 13-13s13 5.832 13 13v135.833c0 5.522 4.477 10 10 10s10-4.478 10-10v-107.833c0-7.168 5.832-13 13-13s13 5.832 13 13v107.833c0 5.522 4.477 10 10 10s10-4.478 10-10v-72c0-7.168 5.832-13 13-13s13 5.832 13 13v102h-94.25c-24.124 0-43.75 19.626-43.75 43.75s19.626 43.75 43.75 43.75h94.25v6c0 7.72-6.28 14-14 14h-29.5c-5.523 0-10 4.478-10 10s4.477 10 10 10h41.5c1.103 0 2 .897 2 2z"/><path id="XMLID_1572_" d="m403.5 439c-2.63 0-5.21 1.069-7.07 2.93-1.86 1.86-2.93 4.44-2.93 7.07s1.07 5.21 2.93 7.069c1.86 1.86 4.44 2.931 7.07 2.931s5.21-1.07 7.07-2.931c1.86-1.859 2.93-4.439 2.93-7.069s-1.07-5.21-2.93-7.07-4.44-2.93-7.07-2.93z"/></g></g></svg>