<svg height="512" viewBox="0 0 74 74" width="512" xmlns="http://www.w3.org/2000/svg"><g id="color_line" data-name="color line"><path d="m65.969 29.125-1.83-1.95c-.37-4.94-2.563-8.586-8.043-14.426-7.78-8.51-19.49-9.08-25.35-4.35 8.44.62 16.08 5.39 12.79 13.13l-3.83 3.59 8.46 9.02 2.53-2.36 4.5.39 3.49 3.72z" fill="#e1e6e9"/><path d="m30.565 36.364 11.393-8.846 3.963 4.227-9.1 11.291z" fill="#e1e6e9"/><path d="m45.92 31.74-9.1 11.3-.52-.55c-.01-.01-.02-.03-.03-.04l-1.03-1.1 8.99-11.19-2.39-2.55.12-.09z" fill="#d5d6db"/><path d="m65.97 29.12-2 1.86-.03-.03-.557-.593a5.335 5.335 0 0 1 -1.356-2.8c-.7-4.2-2.974-7.658-7.866-12.872-6.561-7.165-15.911-8.695-22.191-6.165-.41-.05-.81-.09-1.22-.12 5.86-4.73 17.57-4.16 25.35 4.35 5.48 5.84 7.67 9.49 8.04 14.42l1.8 1.92z" fill="#d5d6db"/><g fill="#323c6b"><path d="m44.563 3.379a.512.512 0 0 1 -.1-.009c-.258-.051-.517-.1-.777-.138a.5.5 0 1 1 .158-.987c.271.043.542.09.813.144a.5.5 0 0 1 -.1.991z"/><path d="m56.3 9.25a.5.5 0 0 1 -.331-.125 24.787 24.787 0 0 0 -8.686-5 .5.5 0 0 1 .313-.949 25.766 25.766 0 0 1 9.034 5.2.5.5 0 0 1 -.331.875z"/><path d="m58.686 36.389a.5.5 0 0 1 -.365-.158l-3.359-3.581-4.088-.35-2.367 2.2a.5.5 0 0 1 -.706-.023l-8.46-9.02a.5.5 0 0 1 .023-.707l3.752-3.518a7.024 7.024 0 0 0 -.261-6.646c-1.891-3.1-6.545-5.281-12.146-5.693a.5.5 0 0 1 -.277-.888c6.116-4.937 18.036-4.346 26.033 4.4 5.673 6.046 7.755 9.746 8.158 14.548l1.71 1.822a.5.5 0 0 1 -.024.708l-7.283 6.764a.5.5 0 0 1 -.34.142zm-7.99-5.11h.043l4.5.39a.5.5 0 0 1 .322.156l3.15 3.357 6.549-6.082-1.486-1.583a.5.5 0 0 1 -.134-.305c-.347-4.625-2.342-8.188-7.909-14.12-7.063-7.727-17.677-8.756-23.608-5.058 5.318.669 9.687 2.923 11.586 6.036a8.106 8.106 0 0 1 .291 7.655.492.492 0 0 1 -.118.169l-3.465 3.249 7.776 8.291 2.166-2.02a.5.5 0 0 1 .341-.135z"/><path d="m36.32 44.157a.5.5 0 0 1 -.356-.148l-6.574-6.657a.5.5 0 0 1 .049-.747l12.211-9.482a.5.5 0 0 1 .671.053l3.965 4.224a.5.5 0 0 1 .024.656l-9.6 11.912a.5.5 0 0 1 -.364.186zm-5.82-7.108 5.785 5.857 8.974-11.136-3.359-3.578z"/></g><path d="m45.6 24.874a.65.65 0 0 1 -.444-1.124l.709-.665a.65.65 0 1 1 .889.948l-.709.665a.646.646 0 0 1 -.445.176z" fill="#fff"/><path d="m47.75 22.31a.642.642 0 0 1 -.309-.079.649.649 0 0 1 -.262-.881 6.6 6.6 0 0 0 .809-3.337 9.443 9.443 0 0 0 -1.489-4.74.65.65 0 1 1 1.1-.687 10.739 10.739 0 0 1 1.685 5.387 7.9 7.9 0 0 1 -.966 4 .649.649 0 0 1 -.568.337z" fill="#fff"/><path d="m8.875 67.677-5.153-5.495a2.808 2.808 0 0 1 .127-3.969l23.3-21.388a2.808 2.808 0 0 1 3.969.127l5.153 5.495a2.808 2.808 0 0 1 -.127 3.969l-23.301 21.384a2.808 2.808 0 0 1 -3.968-.123z" fill="#e7aa6c"/><path d="m36.137 46.416-23.297 21.384a2.8 2.8 0 0 1 -3.97-.12l-.98-1.04a2.825 2.825 0 0 0 3.27-.42l23.3-21.384a2.807 2.807 0 0 0 .17-3.92l.51.54.1-.11 1.03 1.1c.01.01.02.03.03.04a2.791 2.791 0 0 1 -.163 3.93z" fill="#d09865"/><path d="m22.755 63.7a.5.5 0 0 1 -.349-.858l6.058-5.889a.5.5 0 1 1 .7.717l-6.064 5.885a.5.5 0 0 1 -.345.145z" fill="#323c6b"/><path d="m20.367 66.018a.5.5 0 0 1 -.349-.858l.61-.593a.5.5 0 0 1 .7.717l-.61.593a.5.5 0 0 1 -.351.141z" fill="#323c6b"/><path d="m10.925 69.064h-.109a3.286 3.286 0 0 1 -2.306-1.045l-5.153-5.5a3.312 3.312 0 0 1 .15-4.675l23.3-21.392a3.31 3.31 0 0 1 4.671.154l5.153 5.495a3.307 3.307 0 0 1 -.151 4.675l-23.3 21.392a3.279 3.279 0 0 1 -2.255.896zm-1.686-1.729a2.294 2.294 0 0 0 1.609.728 2.263 2.263 0 0 0 1.652-.623l23.3-21.392a2.31 2.31 0 0 0 .1-3.259l-5.153-5.495a2.312 2.312 0 0 0 -3.262-.1l-23.298 21.388a2.311 2.311 0 0 0 -.1 3.259z" fill="#323c6b"/><path d="m70.482 31.969-9.457 8.8a1.759 1.759 0 0 1 -2.486-.08l-1.766-1.889a1.759 1.759 0 0 1 .08-2.486l9.457-8.8a1.759 1.759 0 0 1 2.486.08l1.766 1.884a1.759 1.759 0 0 1 -.08 2.491z" fill="#e1e6e9"/><path d="m70.352 29.73-1.76-1.88a1.766 1.766 0 0 0 -2.49-.08l-.938.872a2 2 0 0 1 2.168.5l1.76 1.89a1.739 1.739 0 0 1 .23 2.08l.95-.89a1.766 1.766 0 0 0 .08-2.492z" fill="#d5d6db"/><path d="m59.824 41.74a2.251 2.251 0 0 1 -1.649-.713l-1.767-1.883a2.262 2.262 0 0 1 .1-3.193l9.459-8.8a2.26 2.26 0 0 1 3.191.1l1.766 1.884a2.259 2.259 0 0 1 -.1 3.192l-9.457 8.8a2.249 2.249 0 0 1 -1.543.613zm7.688-14.2a1.247 1.247 0 0 0 -.859.34l-9.459 8.8a1.26 1.26 0 0 0 -.056 1.778l1.762 1.885a1.261 1.261 0 0 0 1.779.058l9.458-8.8a1.258 1.258 0 0 0 .056-1.778l-1.766-1.884a1.251 1.251 0 0 0 -.878-.4z" fill="#323c6b"/></g></svg>