<svg fill="#fff" xmlns="http://www.w3.org/2000/svg" id="Layer_2" data-name="Layer 2" viewBox="0 0 128 128" width="512" height="512"><title>JEANS</title><path d="M96.75,12.728V1.75A1.749,1.749,0,0,0,95,0H33a1.749,1.749,0,0,0-1.75,1.75V12.728a7.387,7.387,0,0,0-4.167,6.636V126.25a1.749,1.749,0,0,0,1.75,1.75H53.992a1.752,1.752,0,0,0,1.734-1.51L64,66.748l8.274,59.742A1.752,1.752,0,0,0,74.008,128H99.167a1.749,1.749,0,0,0,1.75-1.75V19.364A7.387,7.387,0,0,0,96.75,12.728Zm-31,41.144V45.221A10.884,10.884,0,0,0,74.875,34.5V15.479H85.3V33a1.75,1.75,0,0,0,.786,1.461l11.333,7.481v75.183H74.511ZM53.489,117.125H30.583V41.942l11.333-7.481A1.75,1.75,0,0,0,42.7,33V15.479H62.25V53.872ZM71.375,15.479V34.5a7.387,7.387,0,0,1-5.625,7.165V15.479ZM97.417,37.748,88.8,32.059V15.479h4.733a3.891,3.891,0,0,1,3.886,3.885ZM93.25,11.979H81.833V3.5H93.25ZM78.333,3.5v8.479H49.667V3.5ZM34.75,3.5H46.167v8.479H34.75ZM30.583,19.364a3.891,3.891,0,0,1,3.886-3.885H39.2v16.58l-8.619,5.689Zm0,105.136v-3.875H53l-.536,3.875Zm44.949,0L75,120.625H97.417V124.5Z"/></svg>
