<svg fill="#fff" height="512pt" viewBox="0 -16 512 512" width="512pt" xmlns="http://www.w3.org/2000/svg"><path d="m439.085938 314.449219-71.644532-8.832031 38.328125-305.617188h-405.769531l20.699219 352.933594-9.109375 28.84375c-7.089844 22.4375-10.683594 45.742187-10.683594 69.269531v29.6875h510.988281l.105469-83.832031c0-41.878906-31.347656-77.328125-72.914062-82.453125zm-3.679688 29.835937c26.527344 3.273438 46.53125 25.894532 46.53125 52.617188v5.972656h-134.277344v-5.972656c0-41.878906-31.347656-77.328125-72.828125-82.441406l-67.734375-8.757813 26.515625-211.4375h130.035157l-29.785157 237.5zm-399.761719-250.019531h167.671875l-29.777344 237.414063 97.527344 12.605468c26.527344 3.273438 46.53125 25.894532 46.53125 52.617188v5.972656h-280.730468c1.003906-4.042969 2.128906-8.058594 3.386718-12.039062l10.78125-34.132813zm336.054688-64.203125-4.28125 34.136719h-130.035157l4.28125-34.136719zm-160.332031 0-4.28125 34.136719h-173.207032l-2-34.136719zm-180.394532 420.609375c.007813-5.933594.292969-11.847656.824219-17.734375h84.433594l-11.410157 17.734375zm105.085938 0-10.648438-17.734375h192.078125v17.734375zm211.492187 0v-17.734375h134.277344v17.734375zm0 0"/></svg>