<svg fill="#fff" version="1.1" id="Capa_1" xmlns="http://www.w3.org/2000/svg" xmlns:xlink="http://www.w3.org/1999/xlink" x="0px" y="0px"
	 viewBox="0 0 463 463" style="enable-background:new 0 0 463 463;" xml:space="preserve">
<path d="M454.908,129.281l6.694-9.372c1.303-1.823,1.722-4.132,1.143-6.296c-0.578-2.164-2.094-3.957-4.132-4.886
	c-41.179-18.788-89.431-16.766-91.465-16.668c-2.106,0.099-4.075,1.081-5.422,2.704c-3.087,3.723-5.636,8.277-7.745,13.288h-5.711
	c-10.521,0-19.838,7.106-22.656,17.282c-6.006,21.693-22.602,62.724-66.265,93.784c-10.705,7.615-17.588,19.663-19.049,32.934H222.7
	c-1.461-13.271-8.344-25.319-19.049-32.934c-43.663-31.061-60.259-72.091-66.266-93.785c-2.817-10.175-12.134-17.281-22.655-17.281
	h-5.711c-2.109-5.011-4.658-9.564-7.745-13.288c-1.347-1.624-3.315-2.605-5.422-2.704c-2.035-0.097-50.287-2.119-91.465,16.668
	c-2.038,0.93-3.554,2.722-4.132,4.886c-0.579,2.164-0.16,4.474,1.143,6.296l6.694,9.372C3.763,136.526,0,146.004,0,163.55v16
	c0,21.78,17.72,39.5,39.5,39.5H72v104.5c0,17.369,14.131,31.5,31.5,31.5h8c0.089,0,0.176-0.01,0.264-0.013
	c7.203,9.708,18.746,16.013,31.736,16.013h40c21.78,0,39.5-17.72,39.5-39.5v-0.5h17v0.5c0,21.78,17.72,39.5,39.5,39.5h40
	c12.99,0,24.533-6.305,31.736-16.013c0.088,0.003,0.175,0.013,0.264,0.013h8c17.369,0,31.5-14.131,31.5-31.5v-104.5h32.5
	c21.78,0,39.5-17.72,39.5-39.5v-16C463,146.004,459.237,136.526,454.908,129.281z M371.343,106.97
	c10.469-0.072,42.793,0.708,72.573,11.893l-20.162,28.227c-7.585,10.62-19.904,16.96-32.955,16.96h-31.743
	C359.522,148.217,362.23,120.931,371.343,106.97z M240,267.05v17h-17v-17H240z M91.659,106.974
	c9.091,13.942,11.806,41.235,12.28,57.076H72.202c-13.051,0-25.371-6.34-32.957-16.96l-20.161-28.226
	C48.813,107.711,81.18,106.91,91.659,106.974z M103.5,340.05c-9.098,0-16.5-7.402-16.5-16.5V220.229
	c9.851,3.176,17,12.427,17,23.321v88c0,2.918,0.328,5.76,0.931,8.5H103.5z M208,331.55c0,13.509-10.99,24.5-24.5,24.5h-40
	c-13.51,0-24.5-10.991-24.5-24.5v-88c0-21.78-17.72-39.5-39.5-39.5h-40c-13.51,0-24.5-10.991-24.5-24.5v-16
	c0-9.152,1.12-15.399,2.996-20.401l9.043,12.66c10.395,14.553,27.278,23.241,45.163,23.241H111.5c4.085,0,7.419-3.27,7.499-7.354
	c0.029-1.502,0.402-26.026-5.14-48.646h0.87c3.863,0,7.158,2.526,8.199,6.285c6.538,23.61,24.588,68.257,72.026,102.004
	c6.768,4.814,11.266,12.32,12.613,20.711H183.5c-4.143,0-7.5,3.358-7.5,7.5c0,4.142,3.357,7.5,7.5,7.5H208v17h-24.5
	c-4.143,0-7.5,3.358-7.5,7.5s3.357,7.5,7.5,7.5H208v17h-24.5c-4.143,0-7.5,3.358-7.5,7.5s3.357,7.5,7.5,7.5H208V331.55z M223,316.05
	v-17h17v17H223z M359.5,340.05h-1.431c0.604-2.74,0.931-5.582,0.931-8.5v-88c0-10.894,7.149-20.146,17-23.321V323.55
	C376,332.648,368.598,340.05,359.5,340.05z M448,179.55c0,13.509-10.99,24.5-24.5,24.5h-40c-21.78,0-39.5,17.72-39.5,39.5v88
	c0,13.509-10.99,24.5-24.5,24.5h-40c-13.51,0-24.5-10.991-24.5-24.5v-0.5h24.5c4.143,0,7.5-3.358,7.5-7.5s-3.357-7.5-7.5-7.5H255
	v-17h24.5c4.143,0,7.5-3.358,7.5-7.5s-3.357-7.5-7.5-7.5H255v-17h24.5c4.143,0,7.5-3.358,7.5-7.5c0-4.142-3.357-7.5-7.5-7.5h-24.068
	c1.347-8.392,5.845-15.897,12.613-20.711c47.438-33.747,65.488-78.394,72.025-102.003c1.042-3.759,4.337-6.285,8.2-6.285h0.87
	c-5.542,22.619-5.169,47.143-5.14,48.646c0.08,4.084,3.414,7.354,7.499,7.354h39.299c17.884,0,34.768-8.688,45.161-23.241
	l9.043-12.661c1.876,5.003,2.997,11.249,2.997,20.402V179.55z"/>
<g>
</g>
<g>
</g>
<g>
</g>
<g>
</g>
<g>
</g>
<g>
</g>
<g>
</g>
<g>
</g>
<g>
</g>
<g>
</g>
<g>
</g>
<g>
</g>
<g>
</g>
<g>
</g>
<g>
</g>
</svg>
