<svg id="ejbmnek7b5j1" xmlns="http://www.w3.org/2000/svg" xmlns:xlink="http://www.w3.org/1999/xlink" viewBox="0 0 497 497" shape-rendering="geometricPrecision" text-rendering="geometricPrecision"><style><![CDATA[#ejbmnek7b5j17 {animation: ejbmnek7b5j17_c_o 5000ms linear infinite normal forwards}@keyframes ejbmnek7b5j17_c_o { 0% {opacity: 0} 50% {opacity: 1} 100% {opacity: 0} }#ejbmnek7b5j18 {animation: ejbmnek7b5j18_c_o 5000ms linear infinite normal forwards}@keyframes ejbmnek7b5j18_c_o { 0% {opacity: 1} 50% {opacity: 0} 100% {opacity: 1} }]]></style><path id="ejbmnek7b5j2" d="M248.500000,0C182.123000,0,119.719000,25.849000,72.784000,72.784000C25.849000,119.720000,-0,182.124000,-0,248.500000C-0,314.876000,25.849000,377.280000,72.784000,424.216000C119.719000,471.151000,182.123000,497,248.500000,497C265.987000,497,283.193000,495.188000,299.918000,491.687000L299.918000,5.313000C283.193000,1.812000,265.987000,-0,248.500000,-0Z" fill="rgb(212,212,213)" stroke="none" stroke-width="1"/><path id="ejbmnek7b5j3" d="M497,248.500000C497,182.124000,471.151000,119.720000,424.216000,72.784000C389.646000,38.214000,346.678000,15.101000,299.918000,5.313000C253.157000,15.101000,210.190000,38.214000,175.620000,72.784000C128.685000,119.720000,102.836000,182.124000,102.836000,248.500000C102.836000,314.876000,128.685000,377.280000,175.620000,424.216000C210.190000,458.786000,253.158000,481.899000,299.918000,491.687000C346.679000,481.899000,389.646000,458.786000,424.216000,424.216000C471.151000,377.280000,497,314.876000,497,248.500000Z" fill="rgb(239,237,238)" stroke="none" stroke-width="1"/><ellipse id="ejbmnek7b5j4" rx="29.212000" ry="23.263000" transform="matrix(1 0.00300000000000 -0.00300000000000 1 169.36171099999999 220.74199299999998)" fill="rgb(255,142,158)" stroke="none" stroke-width="1"/><ellipse id="ejbmnek7b5j5" rx="29.212000" ry="23.263000" transform="matrix(-1 -0.00299999999997 0.00299999999997 -1 327.63877699999409 221.30199300000874)" fill="rgb(255,142,158)" stroke="none" stroke-width="1"/><path id="ejbmnek7b5j6" d="M184,178.500000C179.858000,178.500000,176.500000,181.858000,176.500000,186L176.500000,196C176.500000,200.142000,179.858000,203.500000,184,203.500000C188.142000,203.500000,191.500000,200.142000,191.500000,196L191.500000,186C191.500000,181.858000,188.142000,178.500000,184,178.500000Z" fill="rgb(49,61,64)" stroke="none" stroke-width="1"/><path id="ejbmnek7b5j7" d="M312,178.500000C307.858000,178.500000,304.500000,181.858000,304.500000,186L304.500000,196C304.500000,200.142000,307.858000,203.500000,312,203.500000C316.142000,203.500000,319.500000,200.142000,319.500000,196L319.500000,186C319.500000,181.858000,316.142000,178.500000,312,178.500000Z" fill="rgb(49,61,64)" stroke="none" stroke-width="1"/><path id="ejbmnek7b5j8" d="M267.735000,207.234000C263.998000,205.445000,259.520000,207.028000,257.734000,210.765000C256.068000,214.249000,252.443000,216.500000,248.500000,216.500000C244.557000,216.500000,240.932000,214.249000,239.266000,210.765000C237.479000,207.028000,233,205.448000,229.265000,207.234000C225.528000,209.021000,223.947000,213.499000,225.734000,217.235000C229.878000,225.901000,238.814000,231.500000,248.500000,231.500000C258.186000,231.500000,267.123000,225.901000,271.266000,217.235000C273.053000,213.499000,271.472000,209.020000,267.735000,207.234000Z" fill="rgb(49,61,64)" stroke="none" stroke-width="1"/><g id="ejbmnek7b5j9"><circle id="ejbmnek7b5j10" r="45" transform="matrix(1 0 0 1 396.33600000000001 296.50000000000000)" fill="rgb(212,212,213)" stroke="none" stroke-width="1"/><circle id="ejbmnek7b5j11" r="30" transform="matrix(1 0 0 1 176.33500000000001 116.50000000000000)" fill="rgb(212,212,213)" stroke="none" stroke-width="1"/><circle id="ejbmnek7b5j12" r="15" transform="matrix(1 0 0 1 304.50000000000000 413.50000000000000)" fill="rgb(212,212,213)" stroke="none" stroke-width="1"/></g><circle id="ejbmnek7b5j13" r="15" transform="matrix(1 0 0 1 60 248.50000000000000)" fill="rgb(185,187,188)" stroke="none" stroke-width="1"/><circle id="ejbmnek7b5j14" r="15" transform="matrix(1 0 0 1 366.33600000000001 101.50000000000000)" fill="rgb(212,212,213)" stroke="none" stroke-width="1"/><path id="ejbmnek7b5j15" d="M175.962000,424.553000L114.114000,322.867000C99.476000,333.808000,90,351.275000,90,370.956000C90,404.093000,116.863000,430.956000,150,430.956000C159.437000,430.956000,168.019000,428.435000,175.962000,424.553000C175.735000,424.327000,176.189000,424.780000,175.962000,424.553000Z" fill="rgb(185,187,188)" stroke="none" stroke-width="1"/><path id="ejbmnek7b5j16" d="M210.001000,370.956000C210.001000,337.819000,183.138000,310.956000,150.001000,310.956000C136.545000,310.956000,124.123000,315.386000,114.115000,322.867000C125.929000,360.708000,147.131000,395.721000,175.963000,424.553000C176.190000,424.780000,175.735000,424.327000,175.963000,424.553000C195.913000,414.805000,210.001000,394.657000,210.001000,370.956000Z" fill="rgb(212,212,213)" stroke="none" stroke-width="1"/><path id="ejbmnek7b5j17" d="M40.416000,40.416000C45.043000,39.225000,49.399000,37.358000,53.372000,34.926000C58.209000,31.966000,58.209000,25.034000,53.372000,22.074000C49.399000,19.643000,45.043000,17.776000,40.416000,16.585000C39.225000,11.958000,37.358000,7.602000,34.926000,3.629000C31.966000,-1.208000,25.034000,-1.208000,22.074000,3.629000C19.642000,7.602000,17.776000,11.958000,16.584000,16.586000C11.957000,17.777000,7.601000,19.644000,3.628000,22.075000C-1.209000,25.035000,-1.209000,31.967000,3.628000,34.927000C7.601000,37.359000,11.957000,39.226000,16.584000,40.417000C17.775000,45.044000,19.642000,49.400000,22.074000,53.373000C25.034000,58.210000,31.966000,58.210000,34.926000,53.373000C37.358000,49.399000,39.225000,45.043000,40.416000,40.416000Z" opacity="0" fill="rgb(255,206,113)" stroke="none" stroke-width="1"/><path id="ejbmnek7b5j18" d="M440.465000,440.615000C446.959000,438.943000,453.073000,436.323000,458.649000,432.910000C465.438000,428.755000,465.438000,419.027000,458.649000,414.872000C453.073000,411.459000,446.959000,408.839000,440.465000,407.168000C438.793000,400.674000,436.173000,394.560000,432.760000,388.983000C428.605000,382.194000,418.877000,382.194000,414.722000,388.983000C411.309000,394.559000,408.689000,400.673000,407.017000,407.168000C400.523000,408.840000,394.409000,411.460000,388.833000,414.872000C382.044000,419.027000,382.044000,428.755000,388.833000,432.910000C394.409000,436.323000,400.523000,438.943000,407.017000,440.615000C408.689000,447.109000,411.309000,453.222000,414.722000,458.799000C418.877000,465.588000,428.605000,465.588000,432.760000,458.799000C436.173000,453.222000,438.793000,447.108000,440.465000,440.615000Z" fill="rgb(255,206,113)" stroke="none" stroke-width="1"/></svg>