<svg id="eml81npiy7ek1" xmlns="http://www.w3.org/2000/svg" xmlns:xlink="http://www.w3.org/1999/xlink" viewBox="0 0 497 497" shape-rendering="geometricPrecision" text-rendering="geometricPrecision"><style><![CDATA[#eml81npiy7ek2_tr {animation: eml81npiy7ek2_tr__tr 5000ms linear infinite normal forwards}@keyframes eml81npiy7ek2_tr__tr { 0% {transform: translate(248.500015px,248.500383px) rotate(360deg)} 100% {transform: translate(248.500015px,248.500383px) rotate(0deg)} }]]></style><g id="eml81npiy7ek2_tr" transform="translate(248.500015,248.500383) rotate(360)"><path id="eml81npiy7ek2" d="M272.363000,9.190000L304.770000,38.498000L347.489000,29.320000C365.350000,25.483000,383.214000,35.797000,388.821000,53.183000L402.232000,94.768000L443.817000,108.179000C461.204000,113.786000,471.518000,131.650000,467.680000,149.511000L458.502000,192.230000L487.810000,224.637000C500.064000,238.186000,500.064000,258.814000,487.810000,272.363000L458.502000,304.770000L467.680000,347.489000C471.517000,365.350000,461.203000,383.214000,443.817000,388.821000L402.232000,402.232000L388.821000,443.817000C383.214000,461.204000,365.350000,471.518000,347.489000,467.680000L304.770000,458.502000L272.363000,487.810000C258.814000,500.064000,238.186000,500.064000,224.637000,487.810000L192.230000,458.502000L149.511000,467.680000C131.650000,471.517000,113.786000,461.203000,108.179000,443.817000L94.768000,402.232000L53.183000,388.821000C35.796000,383.214000,25.482000,365.350000,29.320000,347.489000L38.498000,304.770000L9.190000,272.363000C-3.064000,258.814000,-3.064000,238.186000,9.190000,224.637000L38.498000,192.230000L29.320000,149.511000C25.483000,131.650000,35.797000,113.786000,53.183000,108.179000L94.768000,94.768000L108.179000,53.183000C113.786000,35.796000,131.650000,25.482000,149.511000,29.320000L192.230000,38.498000L224.637000,9.190000C238.186000,-3.063000,258.814000,-3.063000,272.363000,9.190000Z" transform="translate(-248.500015,-248.500383)" fill="rgb(255,179,87)" stroke="none" stroke-width="1"/></g><path id="eml81npiy7ek3" d="M248.500000,436.485000C144.845000,436.485000,60.515000,352.155000,60.515000,248.500000C60.515000,144.845000,144.845000,60.515000,248.500000,60.515000C352.155000,60.515000,436.485000,144.845000,436.485000,248.500000C436.485000,352.155000,352.155000,436.485000,248.500000,436.485000Z" fill="rgb(252,227,160)" stroke="none" stroke-width="1"/><path id="eml81npiy7ek4" d="M162.515000,248.500000C162.515000,162.514000,220.547000,89.831000,299.500000,67.548000C283.276000,62.969000,266.169000,60.514000,248.500000,60.514000C144.845000,60.514000,60.515000,144.844000,60.515000,248.499000C60.515000,352.154000,144.845000,436.484000,248.500000,436.484000C266.169000,436.484000,283.276000,434.029000,299.500000,429.450000C220.547000,407.169000,162.515000,334.486000,162.515000,248.500000Z" fill="rgb(255,206,113)" stroke="none" stroke-width="1"/><ellipse id="eml81npiy7ek5" rx="29.212000" ry="23.263000" transform="matrix(1 0.00300000000000 -0.00300000000000 1 169.36371099999997 240.74199299999998)" fill="rgb(255,142,158)" stroke="none" stroke-width="1"/><ellipse id="eml81npiy7ek6" rx="29.212000" ry="23.263000" transform="matrix(-1 -0.00299999999997 0.00299999999997 -1 327.63577699999360 241.30099300000876)" fill="rgb(255,142,158)" stroke="none" stroke-width="1"/><g id="eml81npiy7ek7"><path id="eml81npiy7ek8" d="M184,198.500000C179.858000,198.500000,176.500000,201.858000,176.500000,206L176.500000,216C176.500000,220.142000,179.858000,223.500000,184,223.500000C188.142000,223.500000,191.500000,220.142000,191.500000,216L191.500000,206C191.500000,201.858000,188.142000,198.500000,184,198.500000Z" fill="rgb(49,61,64)" stroke="none" stroke-width="1"/><path id="eml81npiy7ek9" d="M312,198.500000C307.858000,198.500000,304.500000,201.858000,304.500000,206L304.500000,216C304.500000,220.142000,307.858000,223.500000,312,223.500000C316.142000,223.500000,319.500000,220.142000,319.500000,216L319.500000,206C319.500000,201.858000,316.142000,198.500000,312,198.500000Z" fill="rgb(49,61,64)" stroke="none" stroke-width="1"/><path id="eml81npiy7ek10" d="M267.735000,227.234000C263.998000,225.445000,259.520000,227.028000,257.734000,230.765000C256.068000,234.249000,252.443000,236.500000,248.500000,236.500000C244.557000,236.500000,240.932000,234.249000,239.266000,230.765000C237.479000,227.028000,233,225.448000,229.265000,227.234000C225.528000,229.021000,223.947000,233.499000,225.734000,237.235000C229.878000,245.901000,238.814000,251.500000,248.500000,251.500000C258.186000,251.500000,267.123000,245.901000,271.266000,237.235000C273.053000,233.499000,271.472000,229.021000,267.735000,227.234000Z" fill="rgb(49,61,64)" stroke="none" stroke-width="1"/></g></svg>