<svg id="Capa_1" enable-background="new 0 0 512.057 512.057" height="512" viewBox="0 0 512.057 512.057" width="512" xmlns="http://www.w3.org/2000/svg"><g><g><path d="m437.443 315.658h-115.044s-14.541 32.114-66.373 53.828v-.001c-51.828-21.712-66.37-53.823-66.373-53.828h-115.044s-19.039 88.535 44.559 143.519c65.143 56.32 136.858 44.232 136.858 44.232v.001s71.715 12.087 136.858-44.232c63.598-54.983 44.559-143.519 44.559-143.519z" fill="#554e55"/><path d="m392.882 459.182c-65.145 56.314-136.856 44.225-136.856 44.225v-.471c26.482-3.524 62.419-14.25 96.554-43.754 63.598-54.992 44.553-143.525 44.553-143.525h40.312s19.034 88.533-44.563 143.525z" fill="#433f43"/><path d="m366.587 315.658s-56.049-47.144-55.959-47.218h-109.205c.09.074-55.959 47.218-55.959 47.218s45.834 53.827 110.561 53.828h.001s0 0 0 0c64.727-.001 110.561-53.828 110.561-53.828z" fill="#7a6e79"/><path d="m366.591 315.661s-10.315 12.112-28.082 24.855l-73.735-72.077h45.85c-.089.079 55.967 47.222 55.967 47.222z" fill="#685e67"/><path d="m343.219 147.657v47.883c0 1.229-.021 2.448-.082 3.657-1.906 46.448-40.179 83.533-87.109 83.533-46.92 0-85.193-37.085-87.109-83.533-.061-1.209-.082-2.428-.082-3.657v-47.883z" fill="#fdb0a0"/><path d="m168.837 147.657h174.381v28.11h-174.381z" fill="#f89f8e"/></g><path d="m276.44 191.474v54.594c0 6.545 6.254 11.278 12.553 9.499l99.217-28.014c6.234-1.76 9.084-8.926 5.813-14.517-30.936-52.887-43.521-164.332-46.602-196.605-.484-5.067-4.736-8.932-9.826-8.932h-163.137c-5.09 0-9.342 3.865-9.826 8.932-3.082 32.273-15.667 143.718-46.602 196.605-3.271 5.591-.421 12.757 5.813 14.517l99.217 28.014c6.299 1.778 12.553-2.954 12.553-9.499v-54.594l-43.425-9.871v-29.011h127.676v29.011z" fill="#918291"/><path d="m388.208 227.554-22.16 6.258c2.872-3.159 3.613-7.995 1.244-12.032-31.902-54.536-46.472-171.792-49.65-205.067-.494-5.232-4.876-9.21-10.127-9.21h30.077c5.093 0 9.348 3.859 9.831 8.933 3.08 32.268 15.665 143.709 46.6 196.597 3.266 5.598.424 12.764-5.815 14.521z" fill="#7a6e79"/><path d="m295.686 70.472h-26.707v-19.476h-25.902v19.476h-26.707v25.903h26.707v56.217h25.902v-56.217h26.707z" fill="#fcc16d"/><g><g><path d="m146.484 388.876 20.22-59.19v-46.378c0-6.442-5.222-11.664-11.664-11.664h-24.31c-72.995 0-105.199 59.389-109.521 106.372-.535 5.818 3.981 10.86 9.824 10.86z" fill="#fb8627"/><path d="m166.707 283.304v46.383l-20.225 59.185h-29.573l20.225-59.185v-46.383c0-6.031-4.58-10.986-10.453-11.598 1.333-.039 2.685-.059 4.047-.059h24.312c6.445 0 11.667 5.222 11.667 11.657z" fill="#f2671f"/><circle cx="146.484" cy="388.876" fill="#fddd45" r="27.598"/><path d="m174.08 388.873c0 15.241-12.358 27.599-27.599 27.599-7.226 0-13.799-2.774-18.715-7.314 14.174-1.145 25.328-13.02 25.328-27.5 0-8.015-3.425-15.241-8.884-20.285.75-.069 1.51-.099 2.27-.099 15.242 0 27.6 12.358 27.6 27.599z" fill="#f8c52d"/></g><g><path d="m365.573 388.876-20.22-59.19v-46.378c0-6.442 5.222-11.664 11.664-11.664h24.309c72.995 0 105.199 59.389 109.521 106.372.535 5.818-3.981 10.86-9.824 10.86z" fill="#918291"/><path d="m481.024 388.873h-32.909c5.844 0 10.355-5.034 9.822-10.858-4.185-45.534-34.558-102.706-102.854-106.2.622-.109 1.273-.168 1.935-.168h24.312c72.995 0 105.194 59.383 109.517 106.368.531 5.824-3.98 10.858-9.823 10.858z" fill="#7a6e79"/><g><circle cx="365.573" cy="388.876" fill="#fddd45" r="27.598"/><path d="m393.173 388.873c0 15.241-12.358 27.599-27.599 27.599-7.226 0-13.799-2.774-18.715-7.314 14.174-1.145 25.328-13.02 25.328-27.5 0-8.015-3.425-15.241-8.884-20.285.75-.069 1.51-.099 2.27-.099 15.242 0 27.6 12.358 27.6 27.599z" fill="#f8c52d"/></g></g></g><g><path d="m136.8 168.435c.706.208 1.418.307 2.119.307 3.241 0 6.231-2.119 7.192-5.386 11.697-39.775 18.828-85.444 22.793-117.292h45.143c4.142 0 7.5-3.358 7.5-7.5s-3.358-7.5-7.5-7.5h-43.383c.595-5.405 1.07-10.104 1.434-13.918.117-1.223 1.132-2.145 2.36-2.145h93.599c4.143 0 7.5-3.358 7.5-7.5s-3.357-7.501-7.5-7.501h-93.599c-9.002 0-16.437 6.757-17.292 15.719-2.418 25.322-9.737 89.987-25.446 143.405-1.168 3.973 1.106 8.142 5.08 9.311z"/><path d="m498.316 377.33c-2.555-27.771-13.772-55.104-30.776-74.992-21.363-24.986-51.176-38.193-86.214-38.193h-24.31c-10.034 0-18.276 7.756-19.083 17.585-8.849-7.461-15.079-12.722-18.657-15.755 4.969-4.456 9.497-9.463 13.483-14.971l57.488-16.232c5.209-1.471 9.355-5.191 11.378-10.208 2.029-5.036 1.618-10.618-1.129-15.314-30.084-51.431-42.517-161.134-45.61-193.531-.854-8.961-8.289-15.719-17.292-15.719h-34.143c-4.143 0-7.5 3.358-7.5 7.5s3.357 7.5 7.5 7.5h34.143c1.229 0 2.243.922 2.36 2.145.354 3.71.83 8.418 1.438 13.918h-43.384c-4.143 0-7.5 3.358-7.5 7.5s3.357 7.5 7.5 7.5h45.151c5.946 47.573 19.19 127.681 44.39 170.761.527.901.329 1.723.164 2.133-.196.486-.623 1.12-1.542 1.38l-99.217 28.014c-.988.278-1.723-.125-2.074-.391-.352-.266-.94-.865-.94-1.891v-48.607l37.587-8.544c3.415-.776 5.838-3.812 5.838-7.313v-29.012c0-4.142-3.357-7.5-7.5-7.5h-43.386v-41.217h19.207c4.143 0 7.5-3.358 7.5-7.5v-25.904c0-4.142-3.357-7.5-7.5-7.5h-19.207v-11.976c0-4.142-3.357-7.5-7.5-7.5h-25.902c-4.142 0-7.5 3.358-7.5 7.5v11.977h-19.207c-4.142 0-7.5 3.358-7.5 7.5v25.903c0 4.142 3.358 7.5 7.5 7.5h19.207v41.217h-43.389c-4.142 0-7.5 3.358-7.5 7.5v29.012c0 3.501 2.423 6.537 5.837 7.313l37.588 8.544v48.607c0 1.026-.589 1.625-.94 1.891-.352.266-1.088.669-2.075.391l-99.217-28.014c-.919-.259-1.345-.894-1.541-1.379-.165-.41-.364-1.231.164-2.133 3.282-5.612 6.5-12.098 9.566-19.28 1.626-3.81-.143-8.216-3.953-9.842s-8.216.143-9.842 3.953c-2.82 6.605-5.754 12.526-8.719 17.596-2.748 4.696-3.159 10.278-1.129 15.314 2.022 5.016 6.169 8.736 11.377 10.207l57.493 16.233c3.986 5.507 8.513 10.513 13.482 14.969-3.577 3.033-9.805 8.293-18.652 15.752-.81-9.83-9.054-17.586-19.09-17.586h-24.31c-35.037 0-64.848 13.208-86.212 38.195-17.006 19.891-28.224 47.226-30.777 75.003-.447 4.895 1.192 9.777 4.496 13.396 3.275 3.587 7.938 5.645 12.793 5.645h40.174c7.885 27.531 22.354 50.568 43.061 68.471 35 30.258 71.861 41.159 96.621 44.975 10.843 1.671 20.339 2.178 27.873 2.178 8.698 0 14.759-.674 17.256-1.013 2.572.358 8.792 1.066 17.679 1.066 25.291 0 72.11-5.747 117.451-41.705 3.245-2.574 3.79-7.292 1.216-10.537-2.574-3.246-7.291-3.79-10.536-1.216-48.903 38.783-100.703 39.22-118.296 38.041v-13.176c36.955-2.748 70.076-25.682 90.257-61.533 3.687 1.319 7.655 2.043 11.79 2.043 16.778 0 30.837-11.837 34.282-27.598h25.334c-4.558 14.267-11.175 27.19-19.722 38.481-2.5 3.303-1.85 8.007 1.453 10.507 1.354 1.025 2.943 1.521 4.521 1.521 2.269 0 4.511-1.025 5.985-2.974 10.487-13.853 18.357-29.84 23.427-47.535h40.169c4.862 0 9.53-2.06 12.807-5.651 3.302-3.619 4.937-8.501 4.487-13.395zm-160.216-45.836c-.021.016-.042.031-.063.047.02-.103.041-.136.063-.047zm-114.23-242.619v-10.903h19.207c4.142 0 7.5-3.358 7.5-7.5v-11.976h10.902v11.977c0 4.142 3.357 7.5 7.5 7.5h19.207v10.903h-19.207c-4.143 0-7.5 3.358-7.5 7.5v48.717h-10.902v-48.718c0-4.142-3.358-7.5-7.5-7.5zm-2.848 173.911c1.579.446 3.181.665 4.768.665 3.724 0 7.365-1.208 10.435-3.53 4.378-3.313 6.889-8.362 6.889-13.852v-54.594c0-3.501-2.423-6.537-5.837-7.313l-37.588-8.544v-15.525h112.677v15.525l-37.587 8.544c-3.415.776-5.838 3.812-5.838 7.313v54.594c0 5.49 2.511 10.54 6.889 13.852 3.07 2.323 6.711 3.531 10.435 3.53 1.587 0 3.188-.219 4.768-.665l13.004-3.672c-13.673 10.315-30.492 16.116-48.007 16.116s-34.333-5.801-48.006-16.115zm-16.029 12.484c15.048 9.628 32.722 14.96 51.035 14.96s35.987-5.332 51.035-14.96c.467.406 5.006 4.258 7.345 6.235-.787.641-1.575 1.273-2.363 1.885-12.663 9.869-32.66 21.632-56.017 21.632-23.797 0-44.197-11.938-58.386-23.512 2.341-1.979 6.884-5.834 7.351-6.24zm-18.995 16.068c16.231 13.737 40.644 28.684 70.03 28.684 21.859 0 44.418-8.576 65.228-24.792 1.601-1.244 3.203-2.551 4.795-3.898 3.175 2.677 6.489 5.471 9.77 8.236-4.878 4.365-10.045 8.459-15.434 12.163-14.507 9.988-37.447 21.894-64.359 21.894-35.819 0-64.617-20.437-79.815-34.038 3.286-2.77 6.606-5.568 9.785-8.249zm-11.974 40.211c-.021-.016-.043-.032-.063-.048.022-.089.043-.055.063.048zm-27 65.253c1.355 3.948 2.864 7.777 4.487 11.51-1.61.417-3.289.662-5.027.662-11.082 0-20.098-9.016-20.098-20.098s9.016-20.098 20.098-20.098 20.098 9.016 20.098 20.098c0 2.253-.389 4.412-1.076 6.436-2.094-1.828-3.972-3.726-5.585-5.696-.013-.016-.027-.024-.041-.039-1.934-2.325-5.168-3.343-8.197-2.304-3.919 1.346-6.004 5.612-4.659 9.529zm-115.996-15.422c-.845 0-1.399-.413-1.715-.758-.275-.302-.724-.952-.636-1.915 3.399-36.98 28.719-99.566 102.051-99.566h24.31c2.299 0 4.17 1.871 4.17 4.17v45.135l-8.731 25.568c-1.312-.149-2.643-.234-3.994-.234-16.78 0-30.839 11.839-34.283 27.601h-81.172zm217.498 115.277c-7.18.506-20.031.761-35.957-1.749-22.656-3.572-56.399-13.655-88.496-41.404-17.423-15.063-29.912-34.264-37.208-57.123h25.336c3.447 15.759 17.504 27.594 34.282 27.594 4.135 0 8.103-.724 11.79-2.043 20.18 35.849 53.3 58.783 90.253 61.532zm0-28.228c-30.043-2.641-57.185-21.05-74.818-49.838 19.782 10.197 46.208 16.543 74.818 17.492zm0-47.357c-27.309-.984-52.64-7.286-70.379-17.064 2.2-4.584 3.434-9.716 3.434-15.131 0-12.7-6.78-23.846-16.911-30.009l4.248-12.441c19.189 13.816 46.788 28.366 79.608 30.336zm7.502-59.082c-34.251 0-63.078-16.115-81.82-30.303v-14.194c18.104 14.322 46.81 31.131 81.82 31.131 24.353 0 49.55-8.485 72.86-24.535 3.056-2.101 6.042-4.326 8.965-6.634v14.223c-2.2 1.667-4.354 3.231-6.526 4.724-16.968 11.673-43.805 25.588-75.299 25.588zm7.498 106.44v-32.345c28.61-.948 55.038-7.295 74.821-17.492-17.634 28.788-44.777 47.197-74.821 49.837zm66.949-79.554c0 5.415 1.234 10.547 3.434 15.131-17.739 9.778-43.072 16.081-70.383 17.064v-44.317c25.626-1.576 51.849-11.172 76.301-27.995 1.109-.762 2.212-1.545 3.317-2.341l4.251 12.444c-10.136 6.163-16.92 17.311-16.92 30.014zm35.098 20.098c-1.739 0-3.417-.245-5.028-.662 1.622-3.732 3.131-7.562 4.487-11.51 1.345-3.917-.741-8.184-4.658-9.529-3.029-1.039-6.26-.022-8.195 2.3-.015.017-.03.025-.044.042-1.613 1.97-3.49 3.868-5.583 5.695-.687-2.023-1.076-4.183-1.076-6.435 0-11.082 9.016-20.098 20.098-20.098s20.098 9.016 20.098 20.098-9.017 20.099-20.099 20.099zm117.175-28.358c-.316.347-.872.761-1.725.761h-81.168c-3.445-15.76-17.504-27.598-34.282-27.598-1.348 0-2.676.084-3.984.233l-8.735-25.571v-45.132c0-2.296 1.867-4.164 4.163-4.164h24.31c73.329 0 98.651 62.581 102.053 99.559.087.964-.358 1.612-.632 1.912z"/></g></g></svg>