<?xml version="1.0" encoding="iso-8859-1"?>
<!-- Generator: Adobe Illustrator 19.0.0, SVG Export Plug-In . SVG Version: 6.00 Build 0)  -->
<svg version="1.1" id="Capa_1" xmlns="http://www.w3.org/2000/svg" xmlns:xlink="http://www.w3.org/1999/xlink" x="0px" y="0px"
	 viewBox="0 0 511.999 511.999" style="enable-background:new 0 0 511.999 511.999;" xml:space="preserve">
<path style="fill:#2D6CCF;" d="M203.073,363.444h105.855c41.621,0,75.362,33.741,75.362,75.362V504.5H127.711v-65.694
	C127.711,397.184,161.452,363.444,203.073,363.444z"/>
<path style="fill:#2159AA;" d="M308.927,363.444h-22.632c41.621,0,75.362,33.741,75.362,75.362V504.5h22.632v-65.695
	C384.289,397.184,350.548,363.444,308.927,363.444z"/>
<path style="fill:#FA9E3E;" d="M298.1,267.73v95.35l-18.765,19.368c-6.12,6.317-14.54,9.882-23.335,9.882l0,0
	c-8.795,0-17.215-3.566-23.335-9.882L213.9,363.08v-95.35L298.1,267.73L298.1,267.73z"/>
<rect x="112" y="189.47" style="fill:#696970;" width="288" height="65.53"/>
<g>
	<path style="fill:#FA9E3E;" d="M125.839,223.99h49.369v56.61h-49.369c-15.632,0-28.305-12.673-28.305-28.305
		S110.207,223.99,125.839,223.99z"/>
	<path style="fill:#FA9E3E;" d="M386.161,223.99h-49.369v56.61h49.369c15.632,0,28.305-12.673,28.305-28.305
		S401.793,223.99,386.161,223.99z"/>
</g>
<path style="fill:#FFB56B;" d="M256,342.79L256,342.79c-61.919,0-112.115-50.195-112.115-112.115V117.281h224.229v113.394
	C368.115,292.595,317.919,342.79,256,342.79z"/>
<path style="fill:#EF9245;" d="M344.781,117.281v125.062c0,53.578-41.949,97.354-94.795,100.286
	c1.992,0.105,3.996,0.161,6.014,0.161l0,0c61.919,0,112.115-50.195,112.115-112.115V117.281H344.781z"/>
<path style="fill:#FFB700;" d="M115,149.364v33.085h282v-33.085c0-70.354-57.033-127.387-127.387-127.387h-27.227
	C172.033,21.977,115,79.01,115,149.364z"/>
<path style="fill:#D69400;" d="M269.613,21.977h-22.955c70.354,0,127.387,57.033,127.387,127.387v33.085H397v-33.085
	C397,79.01,339.967,21.977,269.613,21.977z"/>
<g>
	<path style="fill:#FFD100;" d="M77.871,174.486L77.871,174.486c0,8.277,6.709,14.986,14.986,14.986h326.286
		c8.276,0,14.986-6.709,14.986-14.986l0,0c0-8.277-6.709-14.986-14.986-14.986H92.857C84.58,159.5,77.871,166.209,77.871,174.486z"
		/>
	<path style="fill:#FFD100;" d="M226.399,20.595V159.5h59.203V20.595c0-7.232-5.863-13.095-13.095-13.095h-33.013
		C232.261,7.5,226.399,13.363,226.399,20.595z"/>
</g>
<circle style="fill:#EFA707;" cx="256" cy="102.21" r="35.667"/>
<path style="fill:#FFB700;" d="M353,377.692c-12.396-8.955-27.612-14.248-44.073-14.248H305.5V504.5h78.789v-25H353V377.692z"/>
<rect x="305.5" y="421" style="fill:#FB403F;" width="47.5" height="33.5"/>
<path style="fill:#FFB700;" d="M159,377.692c12.396-8.955,27.612-14.248,44.073-14.248h3.427V504.5h-78.789v-25H159V377.692z"/>
<rect x="159" y="421" style="fill:#FB403F;" width="47.5" height="33.5"/>
<path d="M310.324,215.962c-4.142,0-7.5,3.358-7.5,7.5v2c0,4.142,3.358,7.5,7.5,7.5s7.5-3.358,7.5-7.5v-2
	C317.824,219.32,314.466,215.962,310.324,215.962z"/>
<path d="M201.676,215.962c-4.142,0-7.5,3.358-7.5,7.5v2c0,4.142,3.358,7.5,7.5,7.5s7.5-3.358,7.5-7.5v-2
	C209.176,219.32,205.818,215.962,201.676,215.962z"/>
<path d="M287.936,260.31c-3.406-2.358-8.078-1.509-10.436,1.896c-4.89,7.062-12.928,11.278-21.5,11.278
	c-8.573,0-16.61-4.216-21.501-11.278c-2.357-3.405-7.03-4.254-10.436-1.896c-3.405,2.358-4.254,7.03-1.896,10.435
	c7.691,11.108,20.339,17.739,33.833,17.739c13.494,0,26.142-6.631,33.832-17.739C292.19,267.34,291.341,262.668,287.936,260.31z"/>
<path d="M419.14,196.97c12.401,0,22.49-10.085,22.49-22.48c0-6.008-2.339-11.656-6.587-15.904
	c-4.248-4.247-9.896-6.586-15.903-6.586H404.5v-2.64c0-27.865-8.429-54.614-24.375-77.354
	c-15.584-22.224-37.173-39.065-62.431-48.704c-3.871-1.476-8.204,0.463-9.681,4.333s0.463,8.204,4.333,9.681
	c22.448,8.566,41.639,23.539,55.497,43.301c14.168,20.204,21.657,43.974,21.657,68.741V152h-96.4v-27.724
	c3.974-6.651,6.07-14.228,6.07-22.066c0-7.824-2.096-15.399-6.07-22.06V20.59C293.1,9.237,283.863,0,272.51,0h-33.02
	c-9.934,0-18.247,7.071-20.171,16.444C155.148,27.499,107.5,83.574,107.5,149.36V152H92.86c-12.401,0-22.49,10.089-22.49,22.49
	c0,6.001,2.339,11.646,6.587,15.894c4.248,4.247,9.896,6.586,15.903,6.586h11.64v26.586c-9.019,6.693-14.47,17.332-14.47,28.733
	c0,19.746,16.064,35.81,35.81,35.81h25.225c12.433,22.7,31.823,40.728,55.335,51.438v16.402h-3.33c-0.22,0-0.437,0.015-0.657,0.017
	c-1.035,0.008-2.066,0.033-3.095,0.079c-0.476,0.021-0.949,0.053-1.423,0.083c-0.839,0.052-1.676,0.115-2.51,0.191
	c-0.44,0.041-0.88,0.081-1.318,0.128c-1.05,0.113-2.096,0.247-3.139,0.4c-0.187,0.028-0.377,0.048-0.564,0.077
	c-1.301,0.2-2.594,0.434-3.88,0.695c-0.119,0.024-0.236,0.053-0.355,0.077c-1.169,0.243-2.331,0.514-3.487,0.807
	c-0.179,0.046-0.358,0.092-0.537,0.139c-1.196,0.312-2.385,0.649-3.565,1.015c-0.04,0.012-0.081,0.024-0.12,0.036
	c-3.818,1.19-7.545,2.662-11.162,4.404c-0.053,0.026-0.107,0.052-0.16,0.077c-4.336,2.099-8.517,4.576-12.49,7.447
	c-0.138,0.1-0.263,0.214-0.394,0.322c-20.596,15.091-34.004,39.442-34.004,66.876v65.69c0,4.142,3.358,7.5,7.5,7.5h0.001H206.5h99
	h78.789h0.001c4.142,0,7.5-3.358,7.5-7.5v-65.69c0-27.434-13.408-51.785-34.004-66.876c-0.13-0.108-0.255-0.222-0.394-0.322
	c-3.973-2.87-8.154-5.347-12.49-7.447c-0.053-0.026-0.107-0.052-0.16-0.077c-3.617-1.742-7.344-3.214-11.162-4.404
	c-0.04-0.012-0.08-0.024-0.12-0.036c-1.18-0.366-2.369-0.703-3.565-1.015c-0.179-0.047-0.358-0.094-0.537-0.139
	c-1.156-0.293-2.318-0.564-3.487-0.807c-0.119-0.025-0.236-0.053-0.355-0.077c-1.286-0.261-2.579-0.495-3.88-0.695
	c-0.187-0.029-0.376-0.05-0.564-0.077c-1.042-0.153-2.088-0.287-3.139-0.4c-0.438-0.048-0.878-0.088-1.318-0.128
	c-0.834-0.077-1.671-0.14-2.51-0.191c-0.474-0.029-0.947-0.062-1.423-0.083c-1.029-0.046-2.061-0.07-3.095-0.079
	c-0.22-0.002-0.437-0.017-0.657-0.017h-3.33v-16.402c23.514-10.713,42.903-28.74,55.335-51.438h25.226
	c19.746,0,35.81-16.064,35.81-35.81c0-11.409-5.458-22.053-14.47-28.736V196.97H419.14z M279.375,86.493
	c0.004,0.007,0.009,0.013,0.013,0.019c3.128,4.644,4.782,10.072,4.782,15.698c0,5.642-1.654,11.071-4.783,15.699
	c-0.051,0.075-0.1,0.151-0.148,0.228c-5.271,7.671-13.938,12.243-23.239,12.243c-9.381,0-18.118-4.651-23.375-12.443
	c-0.004-0.007-0.009-0.013-0.013-0.019c-3.128-4.644-4.782-10.075-4.782-15.708c0-5.63,1.656-11.061,4.789-15.708
	C237.874,78.705,246.615,74.05,256,74.05C265.381,74.05,274.118,78.701,279.375,86.493z M233.9,139.285
	c6.586,3.927,14.19,6.095,22.1,6.095s15.514-2.167,22.1-6.095V152h-44.2L233.9,139.285L233.9,139.285z M87.563,179.777
	c-1.414-1.414-2.193-3.292-2.193-5.287c0-4.13,3.36-7.49,7.49-7.49h62.09c4.142,0,7.5-3.358,7.5-7.5s-3.358-7.5-7.5-7.5H122.5v-2.64
	c0-57.451,40.879-106.568,96.4-117.584V47.34c0,4.142,3.358,7.5,7.5,7.5s7.5-3.358,7.5-7.5V20.59c0-3.082,2.508-5.59,5.59-5.59
	h33.02c3.082,0,5.59,2.508,5.59,5.59v44.555c-6.586-3.927-14.19-6.095-22.1-6.095c-14.381,0-27.771,7.128-35.818,19.067
	c-4.809,7.132-7.352,15.463-7.352,24.093c0,7.829,2.096,15.408,6.07,22.07V152h-33.96c-4.142,0-7.5,3.358-7.5,7.5s3.358,7.5,7.5,7.5
	h41.46h59.2h133.54c2.001,0,3.882,0.779,5.297,2.193c1.414,1.414,2.193,3.295,2.193,5.297c0,4.124-3.36,7.48-7.49,7.48H400h-31.89
	H143.89H112H92.86C90.859,181.97,88.978,181.191,87.563,179.777z M136.39,196.97v19.52h-10.55c-0.684,0-1.367,0.027-2.048,0.066
	c-0.184,0.011-0.368,0.024-0.552,0.037c-0.578,0.042-1.153,0.097-1.727,0.167c-0.113,0.014-0.226,0.023-0.338,0.038
	c-0.56,0.074-1.119,0.158-1.674,0.258V196.97H136.39z M125.84,273.1c-11.475,0-20.81-9.336-20.81-20.81
	c0-7.516,4.074-14.465,10.659-18.15c3.069-1.733,6.58-2.65,10.151-2.65h10.553c0.005,0.807,0.02,1.584,0.04,2.348
	c0.005,0.195,0.014,0.39,0.02,0.585c0.013,0.408,0.024,0.82,0.042,1.221c0.012,0.381,0.025,0.761,0.046,1.104l0.02,0.339
	c0.008,0.145,0.017,0.29,0.025,0.436l0.012,0.213c0.023,0.538,0.057,1.066,0.101,1.604c0.018,0.272,0.044,0.539,0.065,0.808
	c0.018,0.224,0.035,0.448,0.054,0.671c0.015,0.168,0.025,0.338,0.041,0.506c0.043,0.526,0.087,1.035,0.15,1.633
	c0.031,0.276,0.064,0.552,0.087,0.828c0.006,0.068,0.013,0.136,0.02,0.204c0.097,0.863,0.208,1.717,0.326,2.571
	c0.024,0.177,0.043,0.355,0.067,0.532c0.14,1.08,0.304,2.171,0.48,3.199c0.001,0.002,0.001,0.004,0.001,0.006
	c0.001,0.002,0.001,0.004,0.001,0.006c0.05,0.306,0.111,0.606,0.163,0.911c0.32,1.845,0.671,3.669,1.06,5.4
	c0.002,0.008,0.004,0.016,0.006,0.023c0.001,0.002,0.001,0.004,0.001,0.006c0,0,0.001,0.001,0.001,0.002
	c0.009,0.042,0.021,0.084,0.03,0.126c0.276,1.245,0.575,2.486,0.892,3.722c0.109,0.426,0.229,0.848,0.343,1.273
	c0.233,0.871,0.472,1.739,0.726,2.605c0.141,0.482,0.289,0.961,0.436,1.441c0.25,0.814,0.507,1.626,0.775,2.435
	c0.159,0.482,0.32,0.963,0.485,1.443c0.286,0.829,0.584,1.654,0.888,2.477c0.115,0.31,0.218,0.625,0.335,0.934H125.84V273.1z
	 M225.283,346.305c0.277,0.073,0.554,0.143,0.831,0.215c1.105,0.285,2.214,0.555,3.327,0.808c0.186,0.042,0.37,0.088,0.556,0.129
	c1.25,0.277,2.505,0.531,3.764,0.768c0.292,0.055,0.584,0.107,0.877,0.159c1.155,0.208,2.314,0.402,3.476,0.576
	c0.144,0.022,0.287,0.047,0.431,0.068c1.273,0.186,2.551,0.346,3.833,0.491c0.304,0.034,0.609,0.066,0.914,0.098
	c1.222,0.129,2.446,0.243,3.674,0.335c0.084,0.006,0.168,0.015,0.252,0.021c1.295,0.093,2.594,0.16,3.895,0.212
	c0.316,0.013,0.632,0.024,0.948,0.034c1.31,0.042,2.622,0.071,3.939,0.071c1.317,0,2.629-0.029,3.939-0.071
	c0.316-0.01,0.632-0.021,0.948-0.034c1.301-0.052,2.6-0.118,3.895-0.212c0.084-0.006,0.168-0.015,0.253-0.021
	c1.228-0.091,2.453-0.206,3.674-0.335c0.304-0.032,0.608-0.064,0.911-0.098c1.283-0.145,2.562-0.306,3.837-0.492
	c0.14-0.02,0.279-0.045,0.419-0.066c1.169-0.175,2.333-0.37,3.495-0.579c0.287-0.052,0.574-0.103,0.86-0.156
	c1.263-0.238,2.523-0.492,3.776-0.771c0.178-0.039,0.355-0.083,0.533-0.124c1.124-0.255,2.244-0.528,3.36-0.816
	c0.269-0.069,0.538-0.137,0.806-0.208c1.24-0.329,2.475-0.677,3.705-1.046c0.063-0.019,0.126-0.034,0.189-0.053v14.832
	l-16.653,17.188c-4.686,4.831-11.228,7.602-17.947,7.602c-3.368,0-6.647-0.665-9.748-1.978c-3.081-1.304-5.841-3.197-8.196-5.622
	l-16.656-17.19v-14.832c0.065,0.02,0.131,0.036,0.196,0.055C222.82,345.632,224.049,345.977,225.283,346.305z M315.553,371.268
	c0.257,0.025,0.513,0.055,0.769,0.082c0.908,0.099,1.811,0.211,2.708,0.345c0.096,0.014,0.192,0.025,0.288,0.04
	c1.031,0.159,2.054,0.345,3.069,0.55c0.136,0.027,0.271,0.055,0.407,0.084c2.132,0.444,4.229,0.985,6.283,1.625
	c0.006,0.002,0.013,0.004,0.019,0.006c5.849,1.824,11.35,4.436,16.405,7.685V413.5H313v-42.427
	C313.855,371.124,314.707,371.185,315.553,371.268z M313,428.5h32.5V447H313V428.5z M298,373.961V421v33.5V497h-84v-42.5V421
	v-47.039l13.29,13.716c3.766,3.877,8.18,6.902,13.116,8.99c4.96,2.099,10.206,3.164,15.593,3.164
	c10.753,0,21.219-4.432,28.716-12.161L298,373.961z M166.5,381.684c5.055-3.248,10.555-5.86,16.404-7.685
	c0.006-0.002,0.013-0.004,0.019-0.006c2.054-0.64,4.151-1.18,6.283-1.625c0.136-0.028,0.271-0.056,0.407-0.084
	c1.016-0.205,2.038-0.391,3.069-0.55c0.096-0.015,0.192-0.026,0.288-0.04c0.897-0.134,1.8-0.246,2.708-0.345
	c0.256-0.028,0.512-0.058,0.769-0.082c0.846-0.082,1.698-0.144,2.553-0.195V413.5h-32.5L166.5,381.684L166.5,381.684z M166.5,428.5
	H199V447h-32.5V428.5z M151.5,394.769V421v33.5V472h-16.29v-33.19C135.21,422.013,141.356,406.633,151.5,394.769z M135.211,497v-10
	H159c4.142,0,7.5-3.358,7.5-7.5V462H199v35H135.211z M313,497v-35h32.5v17.5c0,4.142,3.358,7.5,7.5,7.5h23.789v10H313z
	 M376.79,438.81V472H360.5v-17.5V421v-26.231C370.644,406.633,376.79,422.013,376.79,438.81z M295.278,327.661
	c-12.463,5.062-25.678,7.629-39.278,7.629c-1.7,0-3.394-0.04-5.081-0.12c-0.921-0.044-1.839-0.102-2.755-0.169
	c-10.001-0.736-19.751-2.884-29.1-6.421c-0.783-0.296-1.564-0.603-2.342-0.918h-0.001c-0.002-0.001-0.004-0.001-0.005-0.002
	c-23.681-9.594-43.005-27.493-54.413-50.402c-0.817-1.639-1.58-3.303-2.308-4.98c-2.645-6.096-4.708-12.429-6.136-18.913
	c-0.608-2.739-1.105-5.514-1.489-8.313c-0.002-0.018-0.005-0.035-0.007-0.053c-0.014-0.097-0.023-0.195-0.037-0.292
	c-0.23-1.721-0.419-3.452-0.564-5.189c-0.015-0.168-0.027-0.337-0.04-0.506c-0.06-0.766-0.112-1.533-0.156-2.301l-0.026-0.445
	c-0.036-0.68-0.06-1.361-0.083-2.042c-0.011-0.307-0.023-0.613-0.031-0.927c-0.021-0.872-0.035-1.744-0.035-2.617v-6.69v-27.02
	h209.22v27.02v6.69c0,0.872-0.014,1.743-0.035,2.613c-0.008,0.314-0.02,0.629-0.031,0.942c-0.022,0.671-0.047,1.341-0.082,2.011
	l-0.027,0.473c-0.044,0.767-0.096,1.533-0.156,2.298c-0.013,0.164-0.025,0.329-0.039,0.492c-0.147,1.764-0.339,3.522-0.575,5.27
	c-0.01,0.072-0.017,0.145-0.028,0.217c-0.002,0.011-0.003,0.022-0.005,0.033c-0.37,2.697-0.848,5.371-1.426,8.015
	c-0.025,0.113-0.046,0.229-0.071,0.342c-0.591,2.684-1.302,5.342-2.107,7.973c-1.668,5.449-3.779,10.773-6.332,15.897
	C338.289,300.165,318.965,318.065,295.278,327.661z M386.16,273.1h-18.293c0.117-0.309,0.22-0.623,0.335-0.933
	c0.303-0.819,0.6-1.64,0.884-2.465c0.169-0.489,0.332-0.979,0.495-1.47c0.262-0.793,0.515-1.589,0.76-2.387
	c0.152-0.494,0.304-0.988,0.449-1.484c0.247-0.845,0.481-1.694,0.709-2.544c0.118-0.439,0.242-0.877,0.355-1.318
	c0.32-1.251,0.623-2.506,0.902-3.766c0.007-0.03,0.015-0.061,0.022-0.091c0.001-0.003,0.001-0.007,0.002-0.01
	c0-0.002,0.001-0.004,0.001-0.005c0.008-0.037,0.015-0.075,0.023-0.112c0.451-2.021,0.857-4.112,1.197-6.173
	c0-0.002,0-0.004,0.001-0.006c0.003-0.016,0.006-0.031,0.008-0.047c0.002-0.012,0.002-0.024,0.004-0.036
	c0.178-1.039,0.339-2.103,0.477-3.168c0-0.001,0-0.003,0.001-0.004c0.021-0.151,0.037-0.303,0.057-0.455
	c0.121-0.876,0.234-1.752,0.334-2.637c0.007-0.068,0.014-0.136,0.02-0.204c0.023-0.276,0.056-0.552,0.097-0.912
	c0.054-0.517,0.098-1.023,0.141-1.549c0.016-0.171,0.026-0.344,0.041-0.515c0.018-0.215,0.035-0.43,0.052-0.645
	c0.021-0.276,0.049-0.55,0.067-0.829c0.044-0.537,0.078-1.064,0.101-1.602l0.012-0.201c0.009-0.157,0.019-0.313,0.027-0.47
	l0.016-0.276c0.025-0.396,0.039-0.792,0.047-1.091c0.019-0.426,0.031-0.864,0.045-1.298c0.006-0.183,0.014-0.366,0.019-0.55
	c0.021-0.768,0.035-1.549,0.04-2.36h10.553c0.446,0,0.892,0.014,1.336,0.043c3.107,0.199,6.133,1.092,8.841,2.621
	c6.559,3.671,10.633,10.62,10.633,18.136C406.97,263.765,397.635,273.1,386.16,273.1z M392.5,217.056
	c-0.557-0.1-1.116-0.185-1.678-0.258c-0.107-0.014-0.215-0.023-0.322-0.036c-0.578-0.07-1.158-0.126-1.74-0.168
	c-0.184-0.013-0.367-0.026-0.551-0.037c-0.681-0.039-1.364-0.066-2.048-0.066h-10.55v-19.52h16.89v20.085H392.5z"/>
<g>
</g>
<g>
</g>
<g>
</g>
<g>
</g>
<g>
</g>
<g>
</g>
<g>
</g>
<g>
</g>
<g>
</g>
<g>
</g>
<g>
</g>
<g>
</g>
<g>
</g>
<g>
</g>
<g>
</g>
</svg>
