<svg id="Capa_1" enable-background="new 0 0 511.994 511.994" height="512" viewBox="0 0 511.994 511.994" width="512" xmlns="http://www.w3.org/2000/svg"><path d="m167.634 446.414v58.08h177.05v-58.15l59.603-59.603-41.469-41.468h-248.907l14.964 71.33" fill="#dd636e"/><path d="m347.144 371.544-47.148 49.644-43.837-44.363-43.837 44.363-47.149-49.644" fill="#75cef9"/><path d="m407.631 268.293h.212c18.21 0 32.965-14.767 32.965-32.965 0-18.21-14.755-32.977-32.965-32.977-.237 0-.474 0-.711.012h-301.857c-.237-.012-.474-.012-.711-.012-18.21 0-32.965 14.767-32.965 32.977 0 18.197 14.755 32.965 32.965 32.965h.212" fill="#f1b986"/><path d="m400.048 116.269c-95.896-9.297-191.792-9.297-287.689 0-7.442 59.625-9.633 119.249-6.576 178.874 2.226 43.404 36.958 77.951 80.37 80.001 46.7 2.205 93.4 2.205 140.1 0 43.412-2.05 78.144-36.597 80.37-80.001 3.059-59.625.867-119.249-6.575-178.874z" fill="#f1d0a5"/><path d="m112.365 116.259c47.94-4.649 95.894-6.967 143.848-6.967-24.278 0-48.555 2.346-72.832 7.039-3.777 60.2-4.878 120.4-3.333 180.586 1.016 39.614 15.494 71.917 34.492 79.284-9.456-.257-18.927-.615-28.383-1.059-43.405-2.046-78.14-36.595-80.372-80-3.048-59.627-.859-119.255 6.58-178.883z" fill="#f1b986"/><path d="m407.136 202.364c-67.58 0-171.389-43.758-215.891-64.043-13.427-6.126-21.46-10.106-21.46-10.106s-25.776 65.866-64.511 74.15c-.24-.012-.468-.012-.707-.012-7.025 0-13.535 2.194-18.882 5.946-12.78-92.049-27.13-151.848 5.167-169.783 32.285-17.947 54.416 4.184 54.416 4.184s32.333-17.108 76.931-27.466c53.002-12.324 123.315-15.118 177.228 31.65 56.599 49.105 41.314 114.095 7.709 155.48z" fill="#617881"/><path d="m191.245 138.321c-13.427-6.126-21.46-10.106-21.46-10.106s-25.776 65.866-64.511 74.15c-.24-.012-.468-.012-.707-.012-7.025 0-13.535 2.194-18.882 5.946-12.78-92.049-27.13-151.848 5.167-169.783 32.285-17.947 54.416 4.184 54.416 4.184s32.333-17.108 76.931-27.466c-53.205 12.911-55.734 90.538-30.954 123.087z" fill="#475959"/><path d="m180.753 435.554s-14 14-29.34 19.85c-5.54 2.11-11.25 3.16-16.55 2.1-56.87-7.98-49.88-98.76-49.88-151.64 0-13.53 3.64-25.02 9.05-34.61 15.72-27.88 46.43-39.81 46.43-39.81l-3.08 93.75s-10.83 56.55 4.2 71.58z" fill="#dd636e"/><path d="m151.414 455.404c-5.54 2.11-11.25 3.16-16.55 2.1-56.87-7.98-49.88-98.76-49.88-151.64 0-13.53 3.64-25.02 9.05-34.61l36.84-8.29s-28.93 30.93-28.93 75.82c0 44.9 17.64 107.03 49.47 116.62z" fill="#d82e3d"/><path d="m140.465 231.449-3.08 93.75-52.4-19.33c0-52.87 55.48-74.42 55.48-74.42z" fill="#f1d0a5"/><path d="m331.656 435.557s25.938 25.938 45.891 21.948c56.865-7.981 49.881-98.765 49.881-151.639s-55.488-74.422-55.488-74.422l3.082 93.754s10.834 56.541-4.199 71.574" fill="#dd636e"/><path d="m371.942 231.449 3.08 93.75 52.4-19.33c0-52.87-55.48-74.42-55.48-74.42z" fill="#f1d0a5"/><path d="m212.939 247.761h86.53v41.811h-86.53z" fill="#475959"/><path d="m124.65 289.573c0-63.908 45.953-94.801 69.593-94.801s42.804 19.164 42.804 42.804v51.996" fill="#475959"/><circle cx="180.849" cy="289.573" fill="#617881" r="56.199"/><circle cx="180.849" cy="289.573" fill="#b1e4f9" r="30.32"/><path d="m387.757 289.573c0-63.908-45.953-94.801-69.593-94.801s-42.804 19.164-42.804 42.804v51.996" fill="#475959"/><circle cx="331.559" cy="289.573" fill="#617881" r="56.199"/><circle cx="331.559" cy="289.573" fill="#b1e4f9" r="30.32"/><path d="m180.849 327.392c20.854 0 37.82-16.966 37.82-37.82s-16.966-37.82-37.82-37.82-37.82 16.966-37.82 37.82 16.966 37.82 37.82 37.82zm0-60.639c12.583 0 22.82 10.237 22.82 22.82s-10.237 22.82-22.82 22.82-22.82-10.237-22.82-22.82 10.237-22.82 22.82-22.82z"/><path d="m331.559 251.753c-20.854 0-37.82 16.966-37.82 37.82s16.966 37.82 37.82 37.82 37.819-16.966 37.819-37.82-16.965-37.82-37.819-37.82zm0 60.639c-12.583 0-22.82-10.237-22.82-22.82s10.237-22.82 22.82-22.82 22.819 10.237 22.819 22.82-10.236 22.82-22.819 22.82z"/><path d="m448.303 235.324c0-17.876-11.651-33.071-27.753-38.414 14.783-21.581 23.246-45.73 24.051-69.133 1.129-32.796-12.794-62.727-40.266-86.559-23.725-20.58-52.44-33.609-85.352-38.726-26.048-4.051-54.734-3.161-85.264 2.642-42.168 8.016-75.7 22.997-87.468 28.692-3.065-2.209-7.677-4.99-13.642-7.041-10.172-3.499-26.307-5.442-45.396 5.17-5.512 3.057-10.1 7.258-13.635 12.488-2.32 3.431-1.419 8.094 2.012 10.414 3.432 2.32 8.094 1.419 10.414-2.012 2.232-3.302 5.008-5.844 8.491-7.776 26.708-14.847 44.752 2.238 45.471 2.937 2.327 2.327 5.9 2.865 8.809 1.329.38-.201 38.614-20.189 88.122-29.536 28.782-5.434 55.693-6.259 79.988-2.453 29.994 4.699 56.109 16.543 77.621 35.203 52.632 45.659 38.155 104.44 9.026 142.267-85.671-1.97-228.954-72.597-230.412-73.32-1.885-.935-4.075-1.036-6.037-.278s-3.516 2.304-4.282 4.263c-6.702 17.127-30.15 62.65-58.364 69.376-4.466.014-8.76.763-12.778 2.12-1.257-8.778-2.509-17.231-3.73-25.477-5.892-39.76-10.546-71.165-8.907-93.702.3-4.131-2.805-7.724-6.937-8.024-4.119-.298-7.724 2.805-8.024 6.936-1.759 24.187 3.002 56.314 9.03 96.989 1.496 10.099 3.038 20.506 4.575 31.427-8.314 7.417-13.562 18.204-13.562 30.198 0 15.277 8.514 28.909 21.55 35.787-5.391 10.797-8.17 22.486-8.17 34.753 0 4.942-.062 10.207-.126 15.78-.311 26.616-.697 59.74 5.649 86.988 7.835 33.638 24.863 52.569 50.608 56.27 1.844.353 3.703.516 5.573.516 7.133-.001 14.359-2.384 20.945-5.667v44.743c0 4.142 3.358 7.5 7.5 7.5h177.05c4.143 0 7.5-3.358 7.5-7.5v-44.812c7.555 3.814 14.573 5.742 20.981 5.742 1.932 0 3.81-.174 5.629-.523 3.863-.56 7.556-1.468 10.979-2.7 3.896-1.403 5.919-5.7 4.516-9.597-1.404-3.898-5.699-5.92-9.598-4.516-2.52.907-5.278 1.577-8.2 1.991-.141.02-.281.043-.42.071-13.021 2.603-33.098-13.904-39.115-19.898-2.929-2.929-7.677-2.929-10.607 0-2.929 2.929-2.929 7.678 0 10.606.224.224 4.463 4.434 10.835 9.283v46.854h-73.524v-101.91l31.002 31.375c1.41 1.427 3.331 2.229 5.335 2.229h.074c2.03-.02 3.966-.862 5.364-2.334l45.936-48.367c6.962-2.32 13.639-5.45 19.86-9.351-.542 15.735-3.997 21.123-5.709 22.836-2.93 2.929-2.93 7.677-.001 10.606 1.465 1.465 3.384 2.197 5.304 2.197 1.919 0 3.839-.732 5.303-2.197 7.909-7.908 11.155-23.32 9.924-47.117-.514-9.938-1.714-19.09-2.601-24.877l36.541-13.48c.018 1.71.038 3.44.059 5.211.421 36.126.999 85.604-16.491 111.209-2.336 3.42-1.457 8.087 1.963 10.423 1.294.884 2.767 1.307 4.224 1.307 2.395 0 4.748-1.144 6.2-3.271 20.157-29.511 19.572-79.598 19.103-119.844-.064-5.572-.126-10.834-.126-15.775 0-12.267-2.779-23.955-8.17-34.752 13.036-6.878 21.55-20.511 21.55-35.789zm-261.795 132.329c-16.389-.777-32.171-6.809-44.836-17.06.278-3.584.633-6.993 1.002-10.061 10.646 7.995 23.866 12.74 38.175 12.74 32.585 0 59.517-24.599 63.242-56.199h24.225c3.725 31.6 30.657 56.199 63.243 56.199 14.309 0 27.529-4.745 38.175-12.74.369 3.065.723 6.474 1.001 10.061-12.666 10.252-28.447 16.283-44.836 17.06-46.247 2.188-93.146 2.188-139.391 0zm51.832 16.534-25.912 26.223-26.367-27.763c17.359.818 34.807 1.332 52.279 1.54zm-121.053-129.383c2.072-1.809 4.15-3.458 6.18-4.956-3.964 11.626-6.317 24.868-6.317 39.725 0 7.563 1.332 14.819 3.761 21.555l-28.207-10.405c1.352-17.394 9.588-32.825 24.583-45.919zm165.573-7.043v-10.185c0-19.467 15.838-35.304 35.305-35.304 9.37 0 24.798 6.497 38.14 21.011 3.16 3.438 6.495 7.656 9.64 12.712-9.927-6.394-21.726-10.121-34.385-10.121-19.518 0-37.005 8.832-48.699 22.7v-.813zm117.015-38.052c.331 9.968.519 19.999.555 30.03-9.952-7.796-19.26-12.408-23.456-14.291-5.603-8.424-12.092-15.455-18.882-21.093 14.601 2.897 28.719 4.819 41.783 5.354zm-68.316 128.562c-26.853 0-48.699-21.846-48.699-48.699s21.847-48.699 48.699-48.699 48.698 21.846 48.698 48.699-21.845 48.699-48.698 48.699zm-63.699-56.198h-23.312v-26.811h23.312zm-135.71 7.5c0-26.853 21.846-48.699 48.699-48.699s48.699 21.846 48.699 48.699-21.846 48.699-48.699 48.699-48.699-21.847-48.699-48.699zm97.398-41.812v.813c-11.694-13.868-29.181-22.7-48.699-22.7-12.66 0-24.459 3.728-34.386 10.121 3.145-5.056 6.48-9.274 9.64-12.712 13.342-14.514 28.77-21.011 38.14-21.011 19.467 0 35.305 15.837 35.305 35.304zm165.709 41.812c0-14.86-2.353-28.104-6.319-39.732 1.914 1.415 3.875 2.968 5.837 4.665 15.213 13.155 23.564 28.686 24.924 46.217l-28.204 10.404c2.431-6.736 3.762-13.992 3.762-21.554zm-236.898-123.326c6.981-10.827 12.146-21.197 15.201-27.866 18.98 9.065 72.306 33.616 128.886 51.419-20.062 6.617-34.587 25.527-34.587 47.776v2.685h-23.312v-2.685c0-27.738-22.566-50.304-50.305-50.304-16.893 0-41.896 12.746-58.808 38.175-4.196 1.882-13.512 6.498-23.471 14.301.036-10.534.243-21.111.611-31.652 16.02-5.493 31.396-19.534 45.785-41.849zm-79.255 69.077c0-11.583 7.772-21.378 18.37-24.458-.456 14.405-.614 28.864-.459 43.157-1.193 1.404-2.335 2.829-3.422 4.277-8.721-4.155-14.489-13.002-14.489-22.976zm96.029 261.67v-46.716c5.821-4.427 9.873-8.371 10.923-9.421 2.929-2.929 2.929-7.678 0-10.606-2.929-2.929-7.678-2.929-10.606 0-5.994 5.993-26.045 22.518-39.116 19.898-.143-.028-.285-.053-.429-.073-44.973-6.311-44.15-76.793-43.549-128.258.021-1.773.04-3.504.058-5.216l36.544 13.481c-.887 5.787-2.086 14.938-2.6 24.877-1.231 23.796 2.015 39.208 9.923 47.117 1.464 1.464 3.384 2.197 5.303 2.197s3.839-.732 5.303-2.197c2.929-2.929 2.929-7.678 0-10.606-1.711-1.711-5.167-7.095-5.71-22.836 6.182 3.876 12.814 6.991 19.729 9.307l45.979 48.412c1.398 1.472 3.333 2.314 5.364 2.334 2.042.028 3.982-.783 5.409-2.228l31.001-31.375v101.909zm124.756-86.584-25.91-26.222c17.47-.207 34.917-.72 52.274-1.537zm118.924-152.108c-1.089-1.452-2.235-2.88-3.431-4.288.15-14.364-.008-28.82-.46-43.15 10.604 3.076 18.381 12.874 18.381 24.461 0 9.974-5.769 18.821-14.49 22.977z"/></svg>